<svg id="Capa_1" data-name="Capa 1" xmlns="http://www.w3.org/2000/svg" viewBox="0 0 245.7 158.1"><defs><style>.cls-1{fill:#f4dbc9;}.cls-2{fill:#ede8df;}.cls-3,.cls-7{fill:#d4ccbf;}.cls-3,.cls-6,.cls-8{opacity:0.4;}.cls-10,.cls-3,.cls-6,.cls-7,.cls-8{isolation:isolate;}.cls-4,.cls-8{fill:#e3dbce;}.cls-5{fill:#faf4eb;}.cls-6{fill:none;stroke:#e3dbce;stroke-miterlimit:10;}.cls-7{opacity:0.8;}.cls-9{fill:#241919;}.cls-10{fill:#ebe3d6;opacity:0.1;}.cls-11{fill:#6c3506;}</style></defs><g id="Capa_1-2" data-name="Capa 1"><path class="cls-1" d="M161.1,149.7a1.58,1.58,0,0,0,.4-.1,6.53,6.53,0,0,0,1.1-.2c1-.2,2.4-.5,4.3-1a70.29,70.29,0,0,0,14.9-5.9,71.09,71.09,0,0,0,19.1-14.8,77.7,77.7,0,0,0,8.8-11.7,89.28,89.28,0,0,0,7-14.2,117.06,117.06,0,0,0,4.7-15.6,126.34,126.34,0,0,0,2.5-15.8,103.94,103.94,0,0,0-1.4-28,84.67,84.67,0,0,0-5.6-18.2c-.9-2.1-1.7-3.6-2.2-4.6l-.9-1.5a.45.45,0,0,1,0-.5.3.3,0,0,1,.4,0,44.52,44.52,0,0,1,3.2,6.2,89.06,89.06,0,0,1,5.7,18.3,105.62,105.62,0,0,1,1.6,28.3,114.7,114.7,0,0,1-2.4,16,119.87,119.87,0,0,1-4.7,15.8,88.24,88.24,0,0,1-7,14.5,74.74,74.74,0,0,1-8.9,12,73.5,73.5,0,0,1-34.5,21.4c-1.9.5-3.4.8-4.4,1a7.38,7.38,0,0,1-1.2.2.58.58,0,0,0-.4.1c-.4.1-.8-.3-.8-.9a1,1,0,0,1,.7-.8Z"/><path class="cls-1" d="M174.6,147.4s10.8-4.1,18.9,3.8C193.5,151.3,178.3,159.6,174.6,147.4Z"/><path class="cls-1" d="M188.7,139.7s9.5-6.7,18.4-1.6C207.1,138,194.2,149.8,188.7,139.7Z"/><path class="cls-1" d="M202.7,127.7s8.1-9.5,17.7-7.6C220.4,120.1,210,135.6,202.7,127.7Z"/><path class="cls-1" d="M213.8,110.1s6.1-10.6,15.3-10.3C229.2,99.7,221.8,116.5,213.8,110.1Z"/><path class="cls-1" d="M220.5,92.4s3.4-10.8,11.5-13.3C232,79.1,228.6,95.4,220.5,92.4Z"/><path class="cls-1" d="M224.1,73s1.2-11,8.3-15.9C232.5,57.1,232.3,73.2,224.1,73Z"/><path class="cls-1" d="M224.6,55s-.2-10.2,5.8-16.1C230.4,38.9,232.2,53.5,224.6,55Z"/><path class="cls-1" d="M221.9,38.3s-1.1-8.5,3.5-14.4C225.4,24,228.2,35.9,221.9,38.3Z"/><path class="cls-1" d="M218.1,26.4s-2.3-7.6,1.2-14.3C219.3,12.2,223.8,22.6,218.1,26.4Z"/><path class="cls-1" d="M175,146.9a34.52,34.52,0,0,0,10.6-21.6S170.9,134.9,175,146.9Z"/><path class="cls-1" d="M188.9,139.1s8.2-9.3,7.8-22.1C196.7,117.1,183.8,128.7,188.9,139.1Z"/><path class="cls-1" d="M202.2,126.8s6.9-10.9,4.9-23.3C207,103.5,195.7,117.7,202.2,126.8Z"/><path class="cls-1" d="M213.5,110s4.4-11.8-.1-21.9C213.4,88.1,205.3,104.3,213.5,110Z"/><path class="cls-1" d="M220.3,92.2s1.7-11.3-4.1-18.4C216.2,73.8,212.1,89.9,220.3,92.2Z"/><path class="cls-1" d="M224,72.7s.5-11-5.7-16.7C218.2,56,215.9,71.9,224,72.7Z"/><path class="cls-1" d="M224.3,55.1s-2.1-9.7-9-12.2C215.3,42.9,216.9,57.6,224.3,55.1Z"/><path class="cls-1" d="M221.9,38.3s-3.2-7.4-9.5-7.7C212.4,30.6,216,42.2,221.9,38.3Z"/><path class="cls-1" d="M218.1,26.3s-4.2-6-10.2-4.6C207.9,21.7,213.1,31.5,218.1,26.3Z"/><path class="cls-1" d="M214.4,18.6s-6.3.5-8.8-11.9C205.6,6.7,213.6,7.5,214.4,18.6Z"/><path class="cls-1" d="M82.8,149.7a1.58,1.58,0,0,1-.4-.1,6.53,6.53,0,0,1-1.1-.2c-1-.2-2.4-.5-4.3-1a70.29,70.29,0,0,1-14.9-5.9A71.09,71.09,0,0,1,43,127.7,77.7,77.7,0,0,1,34.2,116a89.28,89.28,0,0,1-7-14.2,117.06,117.06,0,0,1-4.7-15.6A126.34,126.34,0,0,1,20,70.4a103.94,103.94,0,0,1,1.4-28A84.67,84.67,0,0,1,27,24.2c.9-2.1,1.7-3.6,2.2-4.6l.9-1.5a.45.45,0,0,0,0-.5.3.3,0,0,0-.4,0,44.52,44.52,0,0,0-3.2,6.2,89.06,89.06,0,0,0-5.7,18.3,105.62,105.62,0,0,0-1.6,28.3,114.7,114.7,0,0,0,2.4,16,119.87,119.87,0,0,0,4.7,15.8,88.24,88.24,0,0,0,7,14.5,74.74,74.74,0,0,0,8.9,12,73.5,73.5,0,0,0,34.5,21.4c1.9.5,3.4.8,4.4,1a7.38,7.38,0,0,0,1.2.2.58.58,0,0,1,.4.1c.4.1.8-.3.8-.9.1-.3-.3-.7-.7-.8Z"/><path class="cls-1" d="M69.4,147.4s-10.8-4.1-18.9,3.8C50.5,151.3,65.6,159.6,69.4,147.4Z"/><path class="cls-1" d="M55.2,139.7s-9.5-6.7-18.4-1.6C36.9,138,49.7,149.8,55.2,139.7Z"/><path class="cls-1" d="M41.3,127.7s-8.1-9.5-17.7-7.6C23.5,120.1,33.9,135.6,41.3,127.7Z"/><path class="cls-1" d="M30.1,110.1S24,99.5,14.8,99.8C14.8,99.7,22.2,116.5,30.1,110.1Z"/><path class="cls-1" d="M23.4,92.4S20,81.6,11.9,79.1C11.9,79.1,15.3,95.4,23.4,92.4Z"/><path class="cls-1" d="M19.8,73s-1.2-11-8.3-15.9C11.5,57.1,11.6,73.2,19.8,73Z"/><path class="cls-1" d="M19.3,55s.2-10.2-5.8-16.1C13.5,38.9,11.7,53.5,19.3,55Z"/><path class="cls-1" d="M22,38.3s1.1-8.5-3.5-14.4C18.6,24,15.7,35.9,22,38.3Z"/><path class="cls-1" d="M25.8,26.4s2.3-7.6-1.2-14.3C24.6,12.2,20.1,22.6,25.8,26.4Z"/><path class="cls-1" d="M69,146.9a34.52,34.52,0,0,1-10.6-21.6C58.3,125.3,73.1,134.9,69,146.9Z"/><path class="cls-1" d="M55,139.1s-8.2-9.3-7.8-22.1C47.2,117.1,60.2,128.7,55,139.1Z"/><path class="cls-1" d="M41.8,126.8s-6.9-10.9-4.9-23.3C36.9,103.5,48.3,117.7,41.8,126.8Z"/><path class="cls-1" d="M30.4,110s-4.4-11.8.1-21.9C30.5,88.1,38.6,104.3,30.4,110Z"/><path class="cls-1" d="M23.6,92.2s-1.7-11.3,4.1-18.4C27.7,73.8,31.8,89.9,23.6,92.2Z"/><path class="cls-1" d="M19.9,72.7s-.5-11,5.7-16.7C25.7,56,28.1,71.9,19.9,72.7Z"/><path class="cls-1" d="M19.6,55.1s2.1-9.7,9-12.2C28.6,42.9,27.1,57.6,19.6,55.1Z"/><path class="cls-1" d="M22.1,38.3s3.2-7.4,9.5-7.7C31.5,30.6,28,42.2,22.1,38.3Z"/><path class="cls-1" d="M25.8,26.3s4.2-6,10.2-4.6C36,21.7,30.8,31.5,25.8,26.3Z"/><path class="cls-1" d="M29.6,18.6s6.3.5,8.8-11.9C38.4,6.7,30.3,7.5,29.6,18.6Z"/></g><g id="Capa_2" data-name="Capa 2"><g id="OBJECTS"><path class="cls-2" d="M171.6,100.6c-2.2,0-4.5-.1-6.8-.3l.9-11.6c25.4,2.5,41.2-11.5,47.1-24.3,3.6-7.8,3.8-15.4.4-19.8-7.5-9.8-25.6-.2-25.8-.1l-4.6-10.4c1-.6,25.5-13.8,38.4,2.9,6.2,8,6.5,20.6,1,32.7C215.3,84.5,198.2,100.6,171.6,100.6Z"/><path class="cls-3" d="M222.8,39.4c3.8,14.4-4.4,33.6-20.6,46C189.9,94.8,175.9,98,165.3,95l-.4,5.3c2.3.2,4.6.3,6.8.3,26.6,0,43.7-16.1,50.5-30.9C227.2,58.7,227.4,47.5,222.8,39.4Z"/><path class="cls-3" d="M215.4,47.6c-2.6-9-14.4-12.8-26.3-8.5a20.65,20.65,0,0,0-3.4,1.5l1.7,3.9c.2-.1,18.3-9.7,25.8.1,1.9,2.5,2.7,6,2.3,10A12.78,12.78,0,0,0,215.4,47.6Z"/><ellipse class="cls-4" cx="120.6" cy="123.5" rx="78.3" ry="17.5"/><ellipse class="cls-5" cx="120.6" cy="120.2" rx="81.1" ry="17.5"/><path class="cls-6" d="M188,120.2c0,7.9-30.2,14.2-67.5,14.2S53,128,53,120.2,83.2,106,120.5,106,188,112.3,188,120.2Z"/><path class="cls-7" d="M161.7,120.2c0,5.1-18.4,9.2-41.1,9.2s-41.1-4.1-41.1-9.2,18.4-9.2,41.1-9.2S161.7,115,161.7,120.2Z"/><path class="cls-2" d="M120.6,19.5H49c0,19,7,65.7,31.1,95.1,0,0,10.3,11.9,40.4,11.9s40.4-11.9,40.4-11.9C185.1,85.2,192,38.5,192,19.5Z"/><path class="cls-8" d="M177.4,19.5c1.2,31.7-11.3,63.8-35.8,85.1a87.88,87.88,0,0,1-39.8,20,90.75,90.75,0,0,0,18.8,1.8c30.1,0,40.4-11.9,40.4-11.9,24.2-29.4,31.1-76.1,31.1-95.1l-14.7.1Z"/><path class="cls-8" d="M72.5,23.1,57.4,17.7s2.8,64.2,30.3,94.9C87.7,112.6,67.5,65.1,72.5,23.1Z"/><ellipse class="cls-5" cx="120.6" cy="19.1" rx="71.5" ry="15.1"/><ellipse class="cls-8" cx="120.6" cy="20.1" rx="65.3" ry="12.4"/><path class="cls-9" d="M57,23c6.8,5.5,32.7,9.5,63.6,9.5s56.7-4.1,63.6-9.5c-6.8-5.5-32.7-9.5-63.6-9.5S63.9,17.6,57,23Z"/><path class="cls-10" d="M121.3,16c-2.2,0-4.4,0-6.6.1,24.2.5,42.8,3.4,42.8,6.9s-18.7,6.5-42.8,6.9c2.1,0,4.3.1,6.6.1,27.3,0,49.4-3.1,49.4-7S148.5,16,121.3,16Z"/><path class="cls-10" d="M139.5,19c4,.8,6.4,1.9,6.4,3,0,2.9-17.1,5.3-38.1,5.3a210.63,210.63,0,0,1-26.4-1.5c6.8,1.4,18.5,2.4,31.7,2.4,21,0,38.1-2.4,38.1-5.3C151.2,21.4,146.7,20,139.5,19Z"/></g></g><g id="Capa_3" data-name="Capa 3"><path class="cls-11" d="M71.2,82.9c5.2,1.2,9.6,2,13.8,3.3,14.8,4.5,28.3,1.6,40.6-7.2,12.8-9.1,26.2-11.6,41-5.3,3.6,1.5,4.9,3.6,4.9,7.4.1,12.1-6.6,20.2-16.5,25.3-21.2,10.8-43.2,11.7-65.1,2.3C79.5,104.2,72.3,96.4,71.2,82.9Z"/><path class="cls-11" d="M169.2,66.9c-4.7-1.3-8.2-2.2-11.7-3.2-10.9-3.3-21.4-2.3-30.1,5.1-16.2,13.8-34,13.7-53,8.1-4.5-1.4-5.3-3.5-4.4-7.5A29.91,29.91,0,0,1,84.2,49.6c22.4-13.8,45.5-14.3,68.7-2.3A30.82,30.82,0,0,1,169.2,66.9Z"/></g></svg>