<svg xmlns="http://www.w3.org/2000/svg" xmlns:xlink="http://www.w3.org/1999/xlink" viewBox="0 0 800 800"><defs><style>.cls-1{fill:none;}.cls-2{fill:#15eacb;}.cls-3,.cls-4,.cls-5{isolation:isolate;}.cls-4,.cls-5{font-size:197.28px;font-family:ArialMT, Arial;}.cls-4{fill:#0ea899;}.cls-14,.cls-5{fill:#fff;}.cls-6{fill:#eaae50;}.cls-7{fill:#ffc06c;}.cls-8{fill:#a56e2d;}.cls-9{fill:#fcdd90;}.cls-10{fill:#fcefca;}.cls-11{clip-path:url(#clip-path);}.cls-12{fill:#d8bd87;}.cls-13{fill:#fff8e6;}.cls-15{fill:#663d14;}.cls-16{clip-path:url(#clip-path-3);}.cls-17{fill:#44250a;}.cls-18{fill:#915926;}.cls-19{fill:#b76f34;}.cls-20{fill:#ffb3ab;}.cls-21{clip-path:url(#clip-path-4);}.cls-22{fill:#db807d;}.cls-23{fill:#ffd2cf;}.cls-24{fill:#ffebeb;}.cls-25{clip-path:url(#clip-path-5);}.cls-26{fill:#edd3ba;}.cls-27{fill:#ffbc64;}.cls-28{clip-path:url(#clip-path-7);}.cls-29{fill:#e09b41;}.cls-30{fill:#f7af59;}.cls-31{fill:#ffd671;}.cls-32{fill:#c9b045;}.cls-33{fill:url(#Degradado_sin_nombre_2);}.cls-34{fill:#fff2bb;}.cls-35{fill:#f4ac56;}.cls-36{fill:#662414;}.cls-37{fill:#471b0e;}.cls-38{fill:#892d1a;}.cls-39{fill:#af3e2c;}.cls-40{fill:#eae5e5;}.cls-41{fill:#a0a0a0;}.cls-42{fill:#3f150a;}.cls-43{fill:#54220e;}.cls-44{fill:#913d23;}.cls-45{fill:#d1573b;}.cls-46{fill:#6d3c14;}.cls-47{fill:#5e340e;}.cls-48{fill:#bc0000;}.cls-49{fill:#e50b05;}</style><clipPath id="clip-path"><path class="cls-1" d="M237.19,619.06s-4.33-3.92-2.41-8.8,4.34-5.35,4.82-11.13,7.7-3,7.7-3-9.16-14.28-6.5-40.77,22.87-43.82,42.14-49.11,59.6-8.67,77.71,4.81,27.74,38.88,29.18,49.29,1.45,24.87,0,33.05c0,0,10.68,1.93,8.95,7.23,0,0,7.5-2.79,2.17,9.68,0,0-26,12.47-31.34,14.39s-53-11.44-67.9-14.39S254,604.79,237.19,619.06Z"/></clipPath><clipPath id="clip-path-3"><path class="cls-1" d="M262.47,513.18c-10.22,6.13-19.5,21.43-22.87,35.15s-3.39,23.35,1,22.87,2.9-18.3,5.79-25.52,7.7-12,12-13.48,8.67,2.89,14-1,10.11-1,6.26,3.37-6.26,24.55-5.05,32.26,7.46,12,9.39,8.67-3.86-16.86-3.38-27.21,7.95-16.61,14.57-16.61,21.55,13.19,29,12.37,9.87-8.52,16.13-9.48,14.45,5,15.41,9.48,6.74,14.36,11.08,12.43-1.45-11.08,0-15.65,13.72-3.37,17.57,7.46,2.61,20.28,7.29,20,1.14-19.29-3.43-28.44-13-17.33-15.89-22.63-17.81-20.47-52.72-19S275.71,505.23,262.47,513.18Z"/></clipPath><clipPath id="clip-path-4"><path class="cls-1" d="M382.3,597.16a21.62,21.62,0,0,1,4.33-6.58c2.89-2.89,4.13,0,4.13,0s-6.05-15.89-2.2-31.78,20.25-55.86,63.81-59.23,76.79,28.9,82.57,52.49,0,34.91,0,34.91,5,1.2,5.86,5.54c0,0,12,2.7,10.55,7.85s-25.56,10.7-40,14.18-48.13-.36-59-6.14-48.24,9.31-66.14,6.13S379.83,601.52,382.3,597.16Z"/></clipPath><clipPath id="clip-path-5"><path class="cls-1" d="M468.32,497.41c-22.93-1.35-40.49,2.89-54.11,13s-25.53,37.08-27.7,47.19,2.17,10,4.7,6.68,2.16-15.95,10.83-21.73,9.69,3.25,10.26,9.39,8.52,10.47,8.16.36,1.44-23.47,9.39-29.25,16.16,7.58,22.52,5.42,15.28-8,20.21-.72a25,25,0,0,1,2.95,21.66c-2,5.78-2.7,18.78,3.43,19.14s3.26-13.36,4-21.66,5.53-20.63,14.85-19.87c22,1.81,10.84,25.43,18.34,25.43,7.68,0-.15-13.94,8.34-11.16,5.33,1.75,2.53,25.1,7.22,26.18s3.35-4.11,4.93-7,.85-12.48-4.93-24.22S505.16,499.57,468.32,497.41Z"/></clipPath><clipPath id="clip-path-7"><path class="cls-1" d="M250.1,643.29s14.93,36.83,20.22,48.84,14.51,53.64,29.44,58.85,47.21,6,90,6.41c44.13.41,105.45.45,117.36-15.75,10.59-14.41,12.32-42.71,17.62-57.52s18.59-46,21-54.45-52.51.81-70.56-2.4-76.39,7.21-91.28,12-40.3-2-67.32-6S270.32,632.08,250.1,643.29Z"/></clipPath><radialGradient id="Degradado_sin_nombre_2" cx="333.75" cy="10.39" r="180.55" gradientTransform="matrix(1, -0.01, -0.01, -0.51, 1.47, 714.25)" gradientUnits="userSpaceOnUse"><stop offset="0" stop-color="#f9e382"/><stop offset="0.4" stop-color="#f7e17f"/><stop offset="0.67" stop-color="#efd876"/><stop offset="0.9" stop-color="#e2cb67"/><stop offset="1" stop-color="#dbc35e"/></radialGradient></defs><g id="Capa_3" data-name="Capa 3"><circle class="cls-2" cx="398.75" cy="398.97" r="383.03"/><g class="cls-3"><text class="cls-4" transform="translate(252.72 301.65) rotate(-5.98)">Ice</text><text class="cls-4" transform="translate(91.13 471.92) rotate(-5.98)">Cream</text></g><g class="cls-3"><text class="cls-5" transform="translate(252.72 288.35) rotate(-5.98)">Ice</text><text class="cls-5" transform="translate(91.13 458.63) rotate(-5.98)">Cream</text></g></g><g id="Capa_2" data-name="Capa 2"><path class="cls-6" d="M497.45,552.39s52.21-120,55.43-124.4,16.19-1.24,24.68,2.07,13.16,12.46,13.16,12.46S526.47,548.93,520.66,560,494.85,564.69,497.45,552.39Z"/><path class="cls-7" d="M584.65,439.44c-4-4-12.17-11.26-29.62-10.09-26.47,59.83-26.46,59.83-30.46,68.38-3.89,8.31-23.14,46.36-21.29,51.18s6.78,9.28,14.52-1.85S584.65,439.44,584.65,439.44Z"/><path class="cls-8" d="M548.24,444.81l.6-.32.76-.31c.31-.08.67-.21,1.08-.28a16.13,16.13,0,0,1,6.85.37,30.68,30.68,0,0,1,8.86,3.83,28,28,0,0,1,4.32,3.33,15.3,15.3,0,0,1,3.42,4.44l-.47-.59a16.51,16.51,0,0,0-1.44-1.5,33.34,33.34,0,0,0-5.78-4.14,48.32,48.32,0,0,0-8.56-3.9,26.73,26.73,0,0,0-4.8-1.19A11.12,11.12,0,0,0,548.24,444.81Z"/><path class="cls-8" d="M537.34,467.55l.73-.13a12.77,12.77,0,0,1,2.07-.25,19.89,19.89,0,0,1,7.42.95,29.93,29.93,0,0,1,9.33,5,33.33,33.33,0,0,1,4.34,4.09,28.68,28.68,0,0,1,3.52,5l-.54-.63-.62-.75-.9-1a43.25,43.25,0,0,0-5.85-5.16C551.83,470.92,544.48,467.36,537.34,467.55Z"/><path class="cls-8" d="M528.49,492.2l.53-.05a10.11,10.11,0,0,1,1.51-.07,20.33,20.33,0,0,1,5.33.77,25.06,25.06,0,0,1,6.95,3.13,20.07,20.07,0,0,1,3.32,2.78,13.11,13.11,0,0,1,2.47,3.69l-.39-.46-.44-.55-.66-.67a23.65,23.65,0,0,0-4.44-3.33,40.39,40.39,0,0,0-6.66-3.16A38.54,38.54,0,0,0,528.49,492.2Z"/><path class="cls-8" d="M518.09,513.3l.52-.08a9.25,9.25,0,0,1,1.48-.14,16,16,0,0,1,5.28.74,20,20,0,0,1,6.66,3.59,18.47,18.47,0,0,1,2.94,3.1,14.26,14.26,0,0,1,2,3.91l-.33-.5-.38-.58c-.16-.22-.36-.45-.57-.73a22,22,0,0,0-3.95-3.78,28.81,28.81,0,0,0-6.25-3.58A25.65,25.65,0,0,0,518.09,513.3Z"/><path class="cls-8" d="M510.86,531.46s.67,0,1.85-.07c.3,0,.63,0,1,0l1.15.1,1.31.13,1.44.3a24.13,24.13,0,0,1,6.52,2.44,23.59,23.59,0,0,1,6.15,5s-.67-.4-1.73-1.11c-.52-.38-1.22-.71-2-1.15s-1.62-.85-2.54-1.31l-.69-.35-.75-.31-1.53-.66c-.53-.21-1.08-.38-1.63-.59a14.94,14.94,0,0,0-1.67-.58q-.85-.25-1.71-.54l-1.73-.46-.87-.25-.87-.18C512,531.75,511.43,531.61,510.86,531.46Z"/><path class="cls-9" d="M553,441.77c-3.14-.43,3.62-11.11,5.9-11.31s12.76-1.15,18.19,6.62c2.29,3.29-1.8,13.31-5.21,10.95S562.78,443.11,553,441.77Z"/><path class="cls-9" d="M545.17,454.72c-3.11,5.31-1.47,9.24,2.92,10s9.11,3.45,13.14,1.9,8.68-8.79,6.59-11.15S550.88,445,545.17,454.72Z"/><path class="cls-9" d="M536.05,476.55c-3.76,7.32,1.83,13.35,6.69,13.45s11.66-9.1,10.74-12.24S541.28,466.4,536.05,476.55Z"/><path class="cls-9" d="M534.21,495.91c-4.53-2.81-7.48.66-9.83,6s5.39,8.12,10.21,7.88S541.48,500.41,534.21,495.91Z"/><path class="cls-6" d="M512.4,590s62.67-83.91,66-86.79,12.84,2,18.85,6.13,8,12.13,8,12.13-69.58,71.15-76.13,78.69S508.12,599.1,512.4,590Z"/><path class="cls-7" d="M601.06,518c-2.36-3.84-7.42-11-21.24-13.29-31.59,41.77-31.58,41.77-36.27,47.7-4.55,5.76-26.53,31.89-26,36s3.59,8.47,11.65,1.22S601.06,518,601.06,518Z"/><path class="cls-8" d="M571.7,515.46l.53-.14c.17,0,.39-.06.65-.1a8.21,8.21,0,0,1,.89,0,12.69,12.69,0,0,1,5.26,1.54,24.68,24.68,0,0,1,6.21,4.61,23,23,0,0,1,2.76,3.39,12.42,12.42,0,0,1,1.85,4.09l-.26-.55a12,12,0,0,0-.85-1.44,26.74,26.74,0,0,0-3.75-4.28,38,38,0,0,0-6-4.61,20.86,20.86,0,0,0-3.52-1.8A8.7,8.7,0,0,0,571.7,515.46Z"/><path class="cls-8" d="M559,531.18l.59,0a9.71,9.71,0,0,1,1.66.18,16.09,16.09,0,0,1,5.61,2.1,24.07,24.07,0,0,1,6.36,5.58,27.26,27.26,0,0,1,2.63,4,23.56,23.56,0,0,1,1.83,4.54l-.31-.59c-.09-.19-.21-.42-.35-.7s-.32-.57-.52-.91a34.18,34.18,0,0,0-3.62-5.09C569.71,536.47,564.64,532.34,559,531.18Z"/><path class="cls-8" d="M547.62,548.78l.43.05a10.14,10.14,0,0,1,1.18.22,16.46,16.46,0,0,1,4,1.58,20.23,20.23,0,0,1,4.85,3.72,15.62,15.62,0,0,1,2.07,2.77,10.4,10.4,0,0,1,1.25,3.33s-.07-.16-.21-.43l-.25-.51-.39-.64a18.59,18.59,0,0,0-2.85-3.42,32.91,32.91,0,0,0-4.61-3.68A30.11,30.11,0,0,0,547.62,548.78Z"/><path class="cls-8" d="M535.65,563.31l.42,0a8.24,8.24,0,0,1,1.18.17,12.51,12.51,0,0,1,4,1.54,16.06,16.06,0,0,1,4.53,4,15,15,0,0,1,1.72,3,11.37,11.37,0,0,1,.83,3.4l-.17-.44c0-.15-.11-.32-.19-.52s-.19-.43-.31-.68a17,17,0,0,0-2.38-3.67,22.55,22.55,0,0,0-4.22-3.93A20.74,20.74,0,0,0,535.65,563.31Z"/><path class="cls-8" d="M526.69,576.14s.52.09,1.45.28c.23.06.5.09.77.18l.88.29,1,.35,1.06.49a19.65,19.65,0,0,1,4.64,3.1,19,19,0,0,1,3.87,5s-.44-.43-1.14-1.18c-.34-.39-.82-.78-1.32-1.26s-1.1-1-1.74-1.48c-.15-.14-.31-.27-.48-.41l-.52-.37-1.07-.8-1.16-.75a13.5,13.5,0,0,0-1.2-.76c-.41-.24-.82-.48-1.23-.74l-1.27-.67-.63-.35-.65-.31C527.53,576.58,527.1,576.36,526.69,576.14Z"/><path class="cls-9" d="M575.94,514c-2.38-.91,4.85-8,6.66-7.73s10.16,1.44,13,8.49c1.18,3-3.85,10-6.07,7.59S583.34,516.8,575.94,514Z"/><path class="cls-9" d="M567.49,522.62c-3.4,3.57-2.83,6.93.44,8.35s6.47,4.35,9.89,3.88,8.38-5.26,7.19-7.48S573.73,516.07,567.49,522.62Z"/><path class="cls-9" d="M556.38,538c-4.27,5-1,10.74,2.75,11.71s10.75-5,10.61-7.57S562.32,531,556.38,538Z"/><path class="cls-9" d="M551.4,552.71c-3-3-5.95-.85-8.77,2.9s2.72,7.32,6.51,8S556.24,557.55,551.4,552.71Z"/><path id="SVGID" class="cls-10" d="M237.19,619.06s-4.33-3.92-2.41-8.8,4.34-5.35,4.82-11.13,7.7-3,7.7-3-9.16-14.28-6.5-40.77,22.87-43.82,42.14-49.11,59.6-8.67,77.71,4.81,27.74,38.88,29.18,49.29,1.45,24.87,0,33.05c0,0,10.68,1.93,8.95,7.23,0,0,7.5-2.79,2.17,9.68,0,0-26,12.47-31.34,14.39s-53-11.44-67.9-14.39S254,604.79,237.19,619.06Z"/><g class="cls-11"><path class="cls-12" d="M240.55,571.2s3.38,2.78,5.18.21,2.64-19.14,8.28-27.47,7.06-7.46,11.74-7.22,10-5.39,12.85-2.11-3.71,20.86-2.24,28.33,3.16,14.88,4.87,13.74,4.54-2.94,4-10.55-3-21,1.18-25.52,12.09-4.44,18.46,0,19.23,11,26.72,7.94,10.41-11.42,16.73-7.94,8.72,20.21,15.91,20,13.09,3.66,14.63,8,10.32,28.89-13,32.8c0,0,7,1.82,4.26,8.16s-24.54,5.9-24.54,5.9,7.58,16.21,20.95,16.25,32.68-2.08,39.64-12.47-3.72-76.19-16.79-93.81-64.22-33.12-72.33-32.33S235.83,475.66,240.55,571.2Z"/></g><g class="cls-11"><path class="cls-12" d="M373.74,612.44a2.18,2.18,0,0,0-2.35-2c-2.07.21-3.6,1-5.78.81a42.91,42.91,0,0,0-6.4-.42c-6.64.48-11.94-3.07-18.38-3.5-1.73-.11-3.47,0-5.2-.11a11.61,11.61,0,0,1-4.91-1.93,19.44,19.44,0,0,0-8.59-2.26c-5.65-.39-11,.41-16.46-.31-2.26-1.85-5.94-3-8.29-4-3.71-1.71-7-1.37-10.89-.42a11.09,11.09,0,0,1-6.6,0c-1.33-.48-3-1.31-4.48-1.14a14.44,14.44,0,0,0-5.83,2.24c-2.59,1.11-5.15-.1-8-.2-3.38-.13-6.42,1.52-9.51,2.67-1.52.57-3.15.78-4.69,1.3a16.53,16.53,0,0,0-3.75,2.41c-2.65,1.84-6,3.4-8.28,5.64-.09.09,0,.23.09.26,2.83.68,5.48-1.51,7.73-3a13.56,13.56,0,0,1,5.8-2.53,45,45,0,0,0,5.4-.78c1.57-.4,3.11-.9,4.67-1.33,2-.55,3.86,0,5.81.42,2.94.63,6.41.72,8.36-1.94a2.7,2.7,0,0,0,.41-.86c.36-.09.73-.16,1.11-.22,1.51-.24,3.46,1.18,4.82,1.72a12.78,12.78,0,0,0,5,.63,23.89,23.89,0,0,0,4.79-.88,9.78,9.78,0,0,1,6.77,1.14c2.91,1.41,6.65,4.62,10,3a1.43,1.43,0,0,0,.21-.12c4.65,1.51,9.83.78,14.89,1.09,3.83.24,6.42,1.79,9.72,3.48,3.89,2,8.5.73,12.59,1.89,3.06.86,6,2.14,9.09,2.86,2.94.67,5.87.12,8.81.43C365,616.87,374.21,618.56,373.74,612.44Z"/></g><path class="cls-12" d="M255,596.46l.05-.22a2.84,2.84,0,0,1,.23-.61,4.89,4.89,0,0,1,1.55-1.75,6.32,6.32,0,0,1,3.07-1.17,5,5,0,0,1,1.88.16,3.44,3.44,0,0,1,1.64,1l-.26-.06-.28-.07-.38,0a6.74,6.74,0,0,0-2.16.22,15.75,15.75,0,0,0-2.66.94A10.72,10.72,0,0,0,255,596.46Z"/><path class="cls-12" d="M278.83,593.54l.48-.43a13.61,13.61,0,0,1,1.48-1.11,9.31,9.31,0,0,1,2.66-1.23,10,10,0,0,1,3.83-.24,36.44,36.44,0,0,1,4.32.84l1.14.27,1.15.23c.76.17,1.59.3,2.42.47a18.66,18.66,0,0,1,2.54.73l.63.24.32.12.33.18a6.27,6.27,0,0,1,1.14.85,7.49,7.49,0,0,0,2,1.51,2.47,2.47,0,0,0,2.29-.62l-.13.13a4.88,4.88,0,0,1-.39.38l-.32.24c-.12.08-.27.14-.42.23a2.26,2.26,0,0,1-1.21.11,9.62,9.62,0,0,1-2.72-1.56,4.63,4.63,0,0,0-1.59-.65l-.93-.26c-.31-.09-.65-.12-1-.19-.66-.13-1.38-.23-2.12-.33s-1.52-.27-2.3-.41c-1.53-.35-3.09-.78-4.64-1.11a15.43,15.43,0,0,0-2.32-.33,9.86,9.86,0,0,0-2.3.16A16.08,16.08,0,0,0,278.83,593.54Z"/><path class="cls-12" d="M312.76,597.53l.38-.5a4,4,0,0,1,.51-.55,5.49,5.49,0,0,1,.78-.67,8.07,8.07,0,0,1,2.55-1.14,9.48,9.48,0,0,1,1.73-.28,6.1,6.1,0,0,1,2,.35,3.18,3.18,0,0,0,1.59.16,3.29,3.29,0,0,0,1.36-1.07,3.54,3.54,0,0,1,.49-.44,2.3,2.3,0,0,1,.69-.37c.38-.11.75-.24,1.15-.33a7.71,7.71,0,0,1,2.56-.2,5.25,5.25,0,0,1,2.53,1,8.83,8.83,0,0,1,1.81,1.91c1,1.39,1.84,2.85,2.78,4.27,0,0-.7-.67-1.8-1.9-.55-.6-1.18-1.36-1.95-2.13a6,6,0,0,0-2.83-1.77,7.3,7.3,0,0,0-3.77.48.56.56,0,0,0-.16.08.29.29,0,0,0-.14.08,2.8,2.8,0,0,0-.33.3,9.39,9.39,0,0,1-.89.84,4.52,4.52,0,0,1-.61.38,2.57,2.57,0,0,1-.73.22l-.39.05-.36,0a3.56,3.56,0,0,1-.68-.13c-.83-.21-1.52-.57-2.14-.65a6.09,6.09,0,0,0-1,0,9.73,9.73,0,0,0-1.1.13A7.6,7.6,0,0,0,312.76,597.53Z"/><path class="cls-12" d="M345.63,601.14l.47-.58a10.38,10.38,0,0,1,1.5-1.5,7.62,7.62,0,0,1,3-1.51,9.52,9.52,0,0,1,4.41.17,46.74,46.74,0,0,1,4.76,1.6l1.25.43a5.24,5.24,0,0,0,1.2.27,17.1,17.1,0,0,0,2.71.11,37.77,37.77,0,0,0,5.79-.59,22.87,22.87,0,0,0,2.92-.68,7.09,7.09,0,0,0,2.66-1.33l-.14.15a2.66,2.66,0,0,1-.42.44,8.5,8.5,0,0,1-2,1.22,26.07,26.07,0,0,1-7.81,2,13.65,13.65,0,0,1-5.35-.24c-1.74-.56-3.44-1.32-5.16-1.91a9.58,9.58,0,0,0-5.2-.65A10.28,10.28,0,0,0,345.63,601.14Z"/><path class="cls-13" d="M249.09,590.53c-3.58-2.42-5.83-11.61-5.83-13.84s5.15-1.81,6.84-5.28.41-16.22,4.87-21.41,11.86-8.51,13.43-6.06S268,568.85,272,574s12.73,10,7.91,12.35S256.5,595.53,249.09,590.53Z"/><path class="cls-13" d="M270.57,571.41s4.33,8.44,12.87,8.66,8.48-14,6.83-16.78-2.15-14.56,1.91-17.86,17.76,4.79,24.05,7.25,16.85,2.92,22.46,1.12,14.14,10.7,12.12,22.08-8.3,23.32-12.12,20.71S330,587.48,325,588.38s-12.53,7.27-17.63,4.08-22.82-4.77-28.06-4.1-3.83,4.08-14.18,2.6S263.74,561.86,270.57,571.41Z"/><path class="cls-13" d="M246.6,597.09c-1.54-1.14-4.47.33-4.13,2.34.06.38.53.71.88.42a4.75,4.75,0,0,1,1.19-.86c.57-.23,1.22-.08,1.77-.34A.93.93,0,0,0,246.6,597.09Z"/><path class="cls-13" d="M251.6,597.11c-1.16-1.2-3.87-.72-5.37-.52s-3.7.73-3.67,2.67a1.12,1.12,0,0,0,.65.93c1.16.48,2.49.22,3.72.25,1.65,0,3.58.5,4.87-.77A1.83,1.83,0,0,0,251.6,597.11Z"/><path class="cls-13" d="M244,598.54a2.25,2.25,0,0,0-2.32.72c-.56.73-1,2.23-.17,2.91a.9.9,0,0,0,1.1.06c.57-.39.58-1.18.75-1.8,0,.14,0,0,.06-.1s.3-.48.19-.3l0,0,.07-.08a.44.44,0,0,1,.24-.11C244.64,599.65,244.8,598.65,244,598.54Z"/><path class="cls-13" d="M275,593.53c-2.12-2.31-5.56-.7-8,.41-3.31,1.53-6.94,1.53-10.11,3.32-.38.22,0,.89.36.7,2.27-1.09,5.94.14,8.47-.3a18,18,0,0,0,3.33-1.15c1.8-.7,3.42-.55,5.24-.88A1.21,1.21,0,0,0,275,593.53Z"/><path class="cls-13" d="M288.85,594.52c-.73-1-2.05-1.11-3.22-1.14a10.78,10.78,0,0,0-3.76.21c-1.05.36-1.3,2.14-.13,2.55a12,12,0,0,0,3.39.33c1.29,0,2.66.22,3.66-.75A1,1,0,0,0,288.85,594.52Z"/><path class="cls-13" d="M320,598.76a5.44,5.44,0,0,0-5.8-1.93,5.77,5.77,0,0,0-2.65,1.53c-.75.76-.59,1.72-.54,2.66a.71.71,0,0,0,1.1.51l.23-.17a5.85,5.85,0,0,0,2-.74c.88,1.21,2.88,1.12,4.24,1.1A1.9,1.9,0,0,0,320,598.76Z"/><path class="cls-13" d="M329.17,596.21a3.25,3.25,0,0,0-3.94.27,6.34,6.34,0,0,0-1.24.25c-1.16.36-2.23,1.18-3.42,1.44-.16,0-1.46-.85-1.83-.92a2.91,2.91,0,0,0-1.93.44,1,1,0,0,0-.08,1.52c1.5,1.34,2.49,3,4.76,2.69a14.32,14.32,0,0,0,2.75-.85l.25-.08a5.9,5.9,0,0,0,1.78,1.74,1.73,1.73,0,0,0,1.72.12,3.56,3.56,0,0,0,2.67-1.08C332.41,600.08,330.8,597.2,329.17,596.21Z"/><path class="cls-13" d="M292.26,595.16c-.4-1.49-2.3-1.46-3.58-1.45-1.9,0-3.86.26-5.75.41a.78.78,0,0,0-.27,1.47c1.4.89,3.07.66,4.63.39a9.91,9.91,0,0,1,2.82-.18c.74.09,1.12.33,1.83.05A.55.55,0,0,0,292.26,595.16Z"/><path class="cls-13" d="M288.49,593.32a3.78,3.78,0,0,0-2.61-.6,7.27,7.27,0,0,0-2.82.42,1.16,1.16,0,0,0-.11,2.11,6.93,6.93,0,0,0,2.56.34,8.79,8.79,0,0,0,2.56,0A1.37,1.37,0,0,0,288.49,593.32Z"/><path class="cls-13" d="M274.55,593.35c-.69-.41-1.41.7-.77,1.18a17.76,17.76,0,0,0,1.58,1.1c.42.25,1.21.58,1.6.15C277.65,595,275,593.63,274.55,593.35Z"/><path class="cls-13" d="M279.38,596.29a1.79,1.79,0,0,0-.79-.18,4.46,4.46,0,0,1-.82-.2.37.37,0,0,0-.32.66,5.55,5.55,0,0,0,.94.48,1.12,1.12,0,0,0,1.05,0C279.76,596.88,279.63,596.44,279.38,596.29Z"/><path class="cls-13" d="M283.57,594.46c-1.55-.37-2.86.91-4.52.77s-3.27-1.27-4.95-1.66c-.4-.1-.61.37-.44.67a7.29,7.29,0,0,0,5.53,3.34c1.75.22,4.61-.32,4.92-2.34A.68.68,0,0,0,283.57,594.46Z"/><path class="cls-14" d="M257.5,547.51c-6.12,4.69-6.87,10.12-6.51,19.43s5.75,10.66,9.45,6.06S263.65,542.78,257.5,547.51Z"/><path id="SVGID-2" data-name="SVGID" class="cls-15" d="M262.47,513.18c-10.22,6.13-19.5,21.43-22.87,35.15s-3.39,23.35,1,22.87,2.9-18.3,5.79-25.52,7.7-12,12-13.48,8.67,2.89,14-1,10.11-1,6.26,3.37-6.26,24.55-5.05,32.26,7.46,12,9.39,8.67-3.86-16.86-3.38-27.21,7.95-16.61,14.57-16.61,21.55,13.19,29,12.37,9.87-8.52,16.13-9.48,14.45,5,15.41,9.48,6.74,14.36,11.08,12.43-1.45-11.08,0-15.65,13.72-3.37,17.57,7.46,2.61,20.28,7.29,20,1.14-19.29-3.43-28.44-13-17.33-15.89-22.63-17.81-20.47-52.72-19S275.71,505.23,262.47,513.18Z"/><g class="cls-16"><path class="cls-17" d="M291.15,532.6c-5.74-.11-10.49,4.76-12,9.92-1.67,5.63-1,11.7-.07,17.4.47,2.83,1.14,5.63,1.43,8.48a11.75,11.75,0,0,1-.25,4.8c-.37,1.07-3.41-1-4-1.3s-1.26.47-.91,1.06c1,1.72,3.08,4.5,5.49,4.1a4.54,4.54,0,0,0,3.64-3.74c1.19-5.52-.66-11.23-1.39-16.69-.7-5.25-1.25-11.83,2.16-16.3a8,8,0,0,1,8.64-2.67c3.7,1.27,4.59,5.62,8,7a1.56,1.56,0,0,0,2.17-1.1C305.2,537.27,296.23,532.69,291.15,532.6Z"/><path class="cls-17" d="M338.6,532.48c-4.31.5-8.15,3.49-11.41,6.09-1.93,1.54-3.74,3.7-5.95,4.8-2.36,1.18-4.7.32-7.11-.22-.74-.17-1.31.92-.66,1.37,2.32,1.61,5.64,4.39,8.71,3.44,3.83-1.19,6.84-4.61,10-7s6.83-4.69,10.59-2.84c2.35,1.16,4,4.21,5,6.5,1.1,2.49.63,5.17,1.9,7.59a1.63,1.63,0,0,0,2.56.14c3.67-3.86.24-10.32-2.15-14C347.51,534.47,343.38,531.94,338.6,532.48Z"/><path class="cls-17" d="M388.26,542.94c-1.38-2.42-3.08-5.17-5.44-6.76a4.49,4.49,0,0,0-3-.81c-3-1.93-7.14-2.72-10.25-3.42a95.31,95.31,0,0,1-12.11-3.31,1.34,1.34,0,0,0,.25-1.35c-.83-1.85-2.27-2-4.05-2.74a66.2,66.2,0,0,1-6.34-3.36c-2.81-1.57-6-3.56-9.36-4.27a7.15,7.15,0,0,0-1.37-1c-2-1.07-4.66-1-6.84-.83a41,41,0,0,0-13.8,3.23c-1.43,0-3,.59-4.36.63-2.69.09-5.18-.92-7.82-1.16a1.28,1.28,0,0,0-1.41,1.15c-3.09-1.87-6.32-3.67-8.84-1.17a.72.72,0,0,0-.19.61c-2.85,1.33-5.63,2.87-8.47,4.27a2.11,2.11,0,0,0-1.49-1.24c-2-.36-4.11.56-6.1,1.79a2.86,2.86,0,0,0-.44-.61c-2-2-5.43-.39-7.74.34a42,42,0,0,0-5.86,2.42,42.3,42.3,0,0,0-9.24,3.14,14.4,14.4,0,0,0-7.34,5.66,19,19,0,0,0-1.3,1.73c-1.79,2.74-2.59,5.57-3.54,8.66a20,20,0,0,1-.92,2.47,15.45,15.45,0,0,1-1.8,2.57,7.26,7.26,0,0,0-1.57,1.56,1.17,1.17,0,0,0,.29,1.37c1,1.13,2.45.87,3.68.2-.13,3.31.19,6.64-.22,9.93a13.16,13.16,0,0,1-2.72,6.41c-1.82,2.42-3.47,2.59-6.21,3.13a1.72,1.72,0,0,0-1.25,2.65c2.13,3.32,6.13,2.07,8.77.08a17.71,17.71,0,0,0,6.2-10.31c1-4.58,0-9.42.27-14,.07-1.5.24-5.59,1.39-7.87,4.89.2,8.1-7.32,11.73-9.61l1.26-.76c3.25,2.28,8.29,1.53,11.71.06a38.49,38.49,0,0,0,5.76-3.42c6.79-1.9,12.9-6,19.42-8.62a42.62,42.62,0,0,1,3.82,2.77,13.9,13.9,0,0,0,8.59,2.56,47.79,47.79,0,0,0,11-1.52c2.15-.5,4.29-1,6.45-1.49a27.58,27.58,0,0,0,3.69-.77,35.75,35.75,0,0,1,8.56,3.07c3.38,1.69,6.68,3.53,10,5.26,1.85,1.63,3.64,3.33,5.53,4.91,2.5,2.08,6.48,4.45,10.22,4.82a10.32,10.32,0,0,0-1.51,3.88c-.78,4.81,2.3,10.79-1.9,14.45a1.37,1.37,0,0,0,.89,2.47c9.81-.56,1.16-16.56,7.86-19.93,3.56-1.79,7.94,5.11,9.46,7.36a46.37,46.37,0,0,1,6.57,16.87c1.14,5.65,6.48,6.13,7.09,3.49C395.64,561.1,392,549.48,388.26,542.94Z"/><path class="cls-17" d="M325.54,542.25a18.61,18.61,0,0,1-13.73-3.08,104.83,104.83,0,0,0-10.61-6.53c-3-1.48-6.46-2.51-9.84-1.88-2.82.54-6.26,3.08-6.25,6.17a.93.93,0,0,0,1.23.79c1.35-.5,2.18-1.63,3.46-2.28a7,7,0,0,1,4.55-.43c3.53.66,6.7,3,9.62,5s5.47,3.91,8.4,5.58c4.05,2.31,9.1,2.74,13.64,2.08C329.44,547.12,329,541.69,325.54,542.25Z"/><path class="cls-17" d="M329.16,541.09c-1.44-1.27-3.38-.11-4.91.51-2,.8-3.8,1.9-5.83,2.57-.72.24-.7,1.52.13,1.57a14.38,14.38,0,0,0,5.56-.75c1.61-.57,4.59-.92,5.32-2.62A1.1,1.1,0,0,0,329.16,541.09Z"/><path class="cls-17" d="M329.63,539.4c-1.95-.21-3.28,1.38-5,2.15a16.76,16.76,0,0,1-8.46,1.16.9.9,0,0,0-.33,1.76,15.53,15.53,0,0,0,8.17.31c2.15-.6,6.13-1.75,6.28-4.41A.83.83,0,0,0,329.63,539.4Z"/><path class="cls-17" d="M330.2,539.08c-2,.55-3.55,2.32-5.49,3.17a14.07,14.07,0,0,1-7.21.84.84.84,0,0,0-.3,1.66,16.06,16.06,0,0,0,8.58.45c2.53-.71,5.61-2.44,5.56-5.39A.86.86,0,0,0,330.2,539.08Z"/><path class="cls-17" d="M367.59,553.68c-1.31-5.36-2.47-11-5.46-15.71-2.79-4.38-7.1-7.6-11.3-10.49a66.23,66.23,0,0,0-13-7.14c-3.68-1.46-10.07-3.61-13.54-.72a1.17,1.17,0,0,0,.45,2.09c1.76.26,3.51,0,5.28.17a24.83,24.83,0,0,1,7.13,2.17,67.9,67.9,0,0,1,11.88,7,34.71,34.71,0,0,1,9.39,9.44c2.9,4.51,2.4,10.11,4.75,14.77A2.33,2.33,0,0,0,367.59,553.68Z"/><path class="cls-17" d="M364.73,536c-1.42-.7-2.89,1.11-2.08,2.57a9,9,0,0,1,.84,2.28,15.34,15.34,0,0,0,.06,3.33c0,2.51,4.17,3.1,4.56.34.2-1.42.14-2.85.3-4.26a8.78,8.78,0,0,0,.63-2.69C369.45,535.09,365.93,533.81,364.73,536Z"/><path class="cls-17" d="M364.33,551c-1.09,1-1.15,1.09-2.56.42a8.4,8.4,0,0,1-2.67-2.73,64.91,64.91,0,0,1-4-7.05c-2-3.57-6.79-9.26-11.54-7.17a.73.73,0,0,0-.22,1.22c1.05,1.15,2.57,1.66,3.8,2.61a13.5,13.5,0,0,1,2.93,3.33c1.73,2.65,2.75,5.75,4.27,8.52s3.63,5.23,6.59,6.35,6.27.07,6.91-3.2C368.23,551.5,365.89,549.66,364.33,551Z"/></g><path class="cls-18" d="M283.9,532.39c-1-1.95-.5-2.86,2.56-4.64s10.69-5,11.81-4,4.74,5.38,11,4.27,18.4-4.82,22.44-4.09,7.25,5,3.85,6.6-13.93,7.5-16,7.83c-5.52.9-15.06-9.47-20.43-9.89C290.66,527.75,284.5,533.59,283.9,532.39Z"/><path class="cls-19" d="M314.08,534.72c-3.54-1.4-4.62-5.2,0-6.3s7.3-2.93,10.12-.67S322.52,538.05,314.08,534.72Z"/><path class="cls-18" d="M277.84,570.42c-2.47,2.29-4.27-9.1-2.92-13.76S279.43,568.94,277.84,570.42Z"/><path class="cls-12" d="M372.51,569c-1-1.92-2.43-4.68-4.39-5.77-.8-.45-1.52.44-1.31,1.19.76,2.8,2.7,5.47,3.75,8.22a11.61,11.61,0,0,1,1,5.09,1.55,1.55,0,0,1-1.1,1.46c-1.14.45-1.62-1.34-2.25-1.9a1,1,0,0,0-1-.19l-.44.15a1.8,1.8,0,0,0-1.18,1.84c.67,6.28,9.55,3.92,9.51-1.71A19.2,19.2,0,0,0,372.51,569Z"/><path class="cls-15" d="M366.72,563.2c1.25-2.25,8.67,11.13,5.42,16.91s-9.31,2.19-7.54-3.42S365.28,565.78,366.72,563.2Z"/><path class="cls-18" d="M367.82,567.25a.14.14,0,0,0-.25.06,37.1,37.1,0,0,0-.82,6.26c-.22,2.43-1.81,4.27-1.09,6.72a1.47,1.47,0,0,0,2.69.14C370.18,576.6,370.5,570.8,367.82,567.25Z"/><path id="SVGID-3" data-name="SVGID" class="cls-20" d="M382.3,597.16a21.62,21.62,0,0,1,4.33-6.58c2.89-2.89,4.13,0,4.13,0s-6.05-15.89-2.2-31.78,20.25-55.86,63.81-59.23,76.79,28.9,82.57,52.49,0,34.91,0,34.91,5,1.2,5.86,5.54c0,0,12,2.7,10.55,7.85s-25.56,10.7-40,14.18-48.13-.36-59-6.14-48.24,9.31-66.14,6.13S379.83,601.52,382.3,597.16Z"/><g class="cls-21"><path class="cls-22" d="M391.89,610.64s-6.75-6.52,2.37-15.3a28.42,28.42,0,0,1,2.29-3.75s-6.15-12.9-5.09-19.2c0,0,4.28-2.21,5.5-9.45s8.81-25.08,17.65-21-.8,14.22,2.73,15.7,7.8.51,7.79-7.6,2.47-25.29,8-24.61,9.36,5.67,15.51,5.7,20-9.07,26.7,0,6.08,23.94,4.82,28-4.58,6.37-2.51,9.06,8.71,3.33,9.77-6.92-1.19-25.64,10-28.39,13.68,24.49,14.14,33.27,5.66,31.14-13.61,33.94c0,0-41.67-8.43-6.14,13.57,10.07,6.24-4.46,14.33,2.26,17.17s35.71,1.88,51.75-4.78,22.55-30.88,3.3-40.16c0,0,6.79-52.15-11.79-79s-64.94-35.36-91.49-25.69-50.35,30.48-58.61,62.8-1.32,41.93-1.32,41.93-19.18,13.48-12.55,24.33S393,630.69,391.89,610.64Z"/></g><path class="cls-22" d="M454.74,591.94l1.55-.3c1-.19,2.5-.46,4.42-.71a39.45,39.45,0,0,1,7-.36c.34,0,.68.07,1,.1a7.17,7.17,0,0,1,1.08.15l.57.14c.19.06.36.14.55.21a8.53,8.53,0,0,1,1.06.5,15.73,15.73,0,0,0,4.07,2,5.69,5.69,0,0,0,2.25.05,14.64,14.64,0,0,0,2.34-.85,14.19,14.19,0,0,1,2.71-.82,9.6,9.6,0,0,1,3-.17,6.58,6.58,0,0,1,3,1.16,21.57,21.57,0,0,1,2.31,2,28.82,28.82,0,0,0,2.23,1.91,10.2,10.2,0,0,0,2.46,1.45,10.91,10.91,0,0,0,5.84.29c1-.16,2.08-.36,3.15-.52a15,15,0,0,1,3.34-.11,40.36,40.36,0,0,0,6.45.38,5.88,5.88,0,0,0,2.94-1,7.27,7.27,0,0,0,2-2.49l-.19.41a5.66,5.66,0,0,1-.64,1.15l-.26.38c-.1.12-.23.23-.35.36s-.25.27-.39.4l-.5.35a6.22,6.22,0,0,1-2.68,1,18.36,18.36,0,0,1-3.52.1c-1.26-.06-2.62-.17-4-.12a27.35,27.35,0,0,0-4.42.74,16,16,0,0,1-5.11.44,10,10,0,0,1-5.14-2.22c-1.52-1.12-2.83-2.58-4.26-3.61a5.17,5.17,0,0,0-2.34-1,8.46,8.46,0,0,0-2.68.15,14.22,14.22,0,0,0-2.7.83,9.25,9.25,0,0,1-3.1.84l-.83,0c-.28,0-.54-.09-.81-.13l-.4-.08c-.14,0-.27-.08-.4-.12a5.2,5.2,0,0,1-.78-.29,21.81,21.81,0,0,1-2.67-1.56,8.07,8.07,0,0,0-2.55-1.15l-1.45-.22c-.49-.06-1-.08-1.47-.12A75.9,75.9,0,0,0,454.74,591.94Z"/><path class="cls-23" d="M415.75,594c-3.78,2.54-8.13-6.35-13.75-8.11s-8.53-8.79-3.14-15.15,4.16-16.91,7-18,4.66,11.11,14.09,10.61,7.41-23.67,12.46-26.57,14.93-.55,11.35,8.27-2.35,13.25,4,14.76,12.12-13.3,17.09-15.13-.19,22.14,3.63,26.1,17.29,5.09,20.2,10.48-3.42,7.18-8.1,7.4-16.37-5-20.86-5.55-8.42,8.94-13.86,6.8S428.83,585.21,415.75,594Z"/><path class="cls-23" d="M403.17,597.28a17.36,17.36,0,0,0-1.5-1.7,3.37,3.37,0,0,0-1.31-.82,2,2,0,0,0-2.15-.94c-1.93.37-3.12,2.57-4,4.14a9,9,0,0,0-1.05,3,2.32,2.32,0,0,0,.33,1.5c.1.18,1.06.77.64.48a.78.78,0,0,0,1.24-.41h0c-.11.44-.12.35.11,0a.84.84,0,0,0,.74-.21,3.51,3.51,0,0,1,3.57-1.17,32.27,32.27,0,0,1,3.54,1.12c1.15.34,4,1,4.61-.62C408.69,599.59,405.61,598.25,403.17,597.28Z"/><path class="cls-23" d="M443.25,593.82c-3-.07-5.76.83-8.76.25a11.07,11.07,0,0,0-6.17.31c-1.95.73-3,2-4.53,3.31-2.36,2-6.1,2.45-9,2.22a.44.44,0,0,0-.27.82c1.49,1,3,.74,4.68.33a16.77,16.77,0,0,0,3.47-1.6,14.64,14.64,0,0,1,3.9-1.06c2.66-.55,5-1.46,7.81-1.6a75.25,75.25,0,0,0,9-1.4A.79.79,0,0,0,443.25,593.82Z"/><path class="cls-23" d="M486.93,595.49c-1.5-2.48-5.57-.28-7.46.44-2.72,1.05-4.65.71-7.25-.5l-.83-.37a1.54,1.54,0,0,0-.22-.3c-1-1.07-2.76-1.18-4.11-1.35a12.06,12.06,0,0,0-2.84-.18,20.21,20.21,0,0,0-5-.62c-1.2.11-2.21.73-3.49.77s-2.59.13-3.89.19c-.26,0-.21.39,0,.4l3.93.11c1.71.06,2,1.06,3.28,1.43a12.45,12.45,0,0,0,5.92.69c1,.28,2,.44,3,.66,1.57.34,3.45,1.48,5,.77a13,13,0,0,0,4.12.93c1.49.07,3.25-.62,4.67-.94s3.2-.46,4.73-.89A.83.83,0,0,0,486.93,595.49Z"/><path class="cls-23" d="M469.87,570.63a2.25,2.25,0,0,0-.09-.67,1.86,1.86,0,0,0-1.48-1.19,1.28,1.28,0,0,0-1.42,1.69,3.84,3.84,0,0,0,1.08,1.66,1.22,1.22,0,0,0,2-1A2.31,2.31,0,0,0,469.87,570.63Z"/><path class="cls-23" d="M441.59,545c-.57,0-.49.89.08.89S442.17,545,441.59,545Z"/><path class="cls-24" d="M410.48,587.54c-3.46-.77-7.94-12.71-4.9-17s13.15-3.42,17.7-2.41S426.48,591.07,410.48,587.54Z"/><path id="SVGID-4" data-name="SVGID" class="cls-15" d="M468.32,497.41c-22.93-1.35-40.49,2.89-54.11,13s-25.53,37.08-27.7,47.19,2.17,10,4.7,6.68,2.16-15.95,10.83-21.73,9.69,3.25,10.26,9.39,8.52,10.47,8.16.36,1.44-23.47,9.39-29.25,16.16,7.58,22.52,5.42,15.28-8,20.21-.72a25,25,0,0,1,2.95,21.66c-2,5.78-2.7,18.78,3.43,19.14s3.26-13.36,4-21.66,5.53-20.63,14.85-19.87c22,1.81,10.84,25.43,18.34,25.43,7.68,0-.15-13.94,8.34-11.16,5.33,1.75,2.53,25.1,7.22,26.18s3.35-4.11,4.93-7,.85-12.48-4.93-24.22S505.16,499.57,468.32,497.41Z"/><g class="cls-25"><path class="cls-17" d="M537,549.51c-1.75-5.24-5.43-10.2-8.83-14.46a44.86,44.86,0,0,0-12.32-11,40.9,40.9,0,0,0-12.74-4.38l-1.7-.57a44.42,44.42,0,0,1-7.5-3.65c-.73-.42-1.45-.88-2.17-1.33a18,18,0,0,0-10.33-6.42c-.48-.24-1-.48-1.47-.69-10.61-4.54-20.92,1.19-31.11,4.16-5.43,1.59-11.07,2.28-16.44,4.06a43.2,43.2,0,0,0-11.92,6.37c-7.05,5.21-14.18,13-18.11,20.83-1,2,1.6,3.32,3,2,3.13-2.9,5.58-6.51,8.35-9.74a64.8,64.8,0,0,1,6.94-7c1.85,1.3.61,5.29-.13,7.34a41.57,41.57,0,0,0-2.17,9.72c-.29,2.77.49,5.25,1,7.93.81,4.18-2.83,3.86-5.67,3.79-1.28,0-1.85,1.43-1.57,2.46,1.29,4.68,7.38,3.05,10.11.81,5-4.06.82-10.16,1.23-15.27a37.73,37.73,0,0,1,1.31-7,2.23,2.23,0,0,0,2.43-1.78c.2-.93.42-2,.56-3.17a2.62,2.62,0,0,0,2.42-1.13,6,6,0,0,0-.58-6.93,8.22,8.22,0,0,1,7.13,0c4,1.92,6.17,5.47,10.76,6.34,3.81.73,8-1.22,11.44-2.69a18.64,18.64,0,0,1,6.34-1.16c2.11-.08,2.95,1.35,4.55,2.28a.91.91,0,0,0,1.27-.65c1.35-4.27-4.81-5.13-7.62-4.91-5.94.48-11.59,4.23-17.35,1.23-2.57-1.34-4.57-3.66-7.15-5a8.42,8.42,0,0,0-1.61-.67c4.31-1.16,8.75-2,13.18-3.22,5.53-1.52,10.91-3.93,16.51-5.16,5.17-1.13,9.92.33,14.42,2.84,2.5,1.39,4.84,3,7.21,4.63a6.63,6.63,0,0,1,.34,5.69c-1,2.76-2.93,5.15-4.25,7.76a37.87,37.87,0,0,0-2.84,8.43c-1.6,6.68-.19,13-.68,19.74-.15,2-.53,4.72-2.52,5.7-1.84.91-4.15.16-6.06-.05a2.45,2.45,0,0,0-1.5,4.59,10.12,10.12,0,0,0,14.07-3.24c1.9-2.93,1.85-7.14,1.8-10.47-.08-4.82-.62-9.31.16-14.11a37,37,0,0,1,4.17-11.7,2.57,2.57,0,0,0,3.7-.28,2.7,2.7,0,0,0,3.21,0,2.87,2.87,0,0,0,4.4.13c.21-.17.36-.3.46-.4.43.2.85.45,1.27.66a8.32,8.32,0,0,0,2.56.82,19.15,19.15,0,0,1,1.94,7.12,2.55,2.55,0,0,0,1.49,2.22c0,.69,0,1.39,0,2.1,0,3.39.79,7.68,4.35,9.05,3.95,1.53,6.46-1.69,7.5-5,.52-1.66.4-3.46,1-5.11.31-.91.25-.52,1.1.21a8.85,8.85,0,0,1,1.21,1.33c-.49,3.43.25,6.78.88,10.17.66,3.57.11,7.11,1.58,10.53a2.67,2.67,0,0,0,1.35,1.43.5.5,0,0,0,0,.13c.7,2.47,3.9,2.09,5,.26C537.62,560.71,539,555.49,537,549.51Z"/></g><g class="cls-25"><path class="cls-17" d="M393.51,544.47c-.31.44-.59.87-.86,1.31a1.46,1.46,0,0,0-2.51-.77c-3.54,3.32-4.44,8.49-5.11,13.07a8.22,8.22,0,0,0,.76,5.44c-.1,3.37,4.89,7.07,7.46,3.17,1.51-2.28,1.25-4.42,1.51-7,.45-4.48,2.55-8.6,3.3-13C398.46,544.23,395.09,542.26,393.51,544.47Z"/></g><path class="cls-18" d="M451.06,523.88c-3-.24-8.83-3.35-7.28-4.54s7.62-1.35,11.33-3,11.81-5.22,17.94-4.12,11.31,5.06,12.77,9.39-2.09,9-4.27,13.09,0,28.11-2.67,28.54-3.23-2.27-2.22-9.51,2.76-14.3,1-21.3-4.5-10.11-10.05-10.82S459.63,524.55,451.06,523.88Z"/><path class="cls-18" d="M415.92,555.26c-1.76.32-3-3.48-2.69-5.72s-2.74-8.2-1.82-9.77,7.1-8.42,6.54-4.72S415.7,545.38,416.6,548,419.07,554.7,415.92,555.26Z"/><path class="cls-22" d="M453.82,533.14A1.2,1.2,0,0,0,453,535a14.94,14.94,0,0,1,1.93,7.94,15.42,15.42,0,0,1-1.17,5.85c-.15.37-2.49,4.66-3.41,3.81a1.75,1.75,0,0,0-2.57,2.31c4.2,5.58,9.48-4.67,10.28-7.84C458.68,544.45,459,532.3,453.82,533.14Z"/><path class="cls-17" d="M453.82,532.77c1.3,0,3.41,8.43,3.05,12.88s-3.25,11.69-7.94,11-4.7-7.1-1.45-11S451.13,532.77,453.82,532.77Z"/><path class="cls-15" d="M448.26,554.59c-1.33-.27-2.2-2.36-1.49-4.94s3-4.61,3.73-7.19,1.57-7.29,2.47-7.74,2.58,9.31,1.69,12.68S452.64,555.49,448.26,554.59Z"/><path class="cls-18" d="M448.79,551.21c-1.67-.6-1.12-2.12.24-4.14s3-2.59,3.29,0S452.47,552.54,448.79,551.21Z"/><path class="cls-22" d="M492.46,567.46a1.61,1.61,0,0,0-2-.94,1.82,1.82,0,0,0-1.13,2.82l.09.1c-1.76,1.08-2.1,3.44-1.43,5.4a1.78,1.78,0,0,0,2.26,1,3.46,3.46,0,0,0,1.6-1.21A4,4,0,0,0,493,571.4,9.67,9.67,0,0,0,492.46,567.46Z"/><path class="cls-22" d="M493.13,569.14a2,2,0,0,0-2-2,1.08,1.08,0,0,0-1,1.17,1.36,1.36,0,0,1,0,.2c0-.23.17.71.1.33a1.51,1.51,0,0,0,.09.47c-.05-.23,0,0,0,.13s0,.06,0,.11a3.25,3.25,0,0,0-.06.45,1.74,1.74,0,0,0,.3,1.33,1.15,1.15,0,0,0,1.31.42C493,571.46,493.19,570.11,493.13,569.14Z"/><path class="cls-15" d="M489.81,567.11c2.46-1.49,2.89,7.58,0,8.67S486.2,569.28,489.81,567.11Z"/><path class="cls-18" d="M490.26,569c-.88-.33-1.54.36-1.92,1.08a4.12,4.12,0,0,0-.33,1.1,2.52,2.52,0,0,0,0,.67l.07.34c.14.34.19.42.15.25a1.18,1.18,0,0,0,2.16.11c-.07.17,0,.09.17-.23a1.67,1.67,0,0,0,.15-.66c0-.26.07-.53.09-.79C490.82,570.29,491,569.3,490.26,569Z"/><path class="cls-22" d="M396.55,591.59s.1-.1.27-.3.2-.23.34-.36l.53-.44a3.34,3.34,0,0,1,1.85-.64,4,4,0,0,1,2.38,1c.72.54,1.35,1.22,2,1.83.17.16.34.29.51.44a5.67,5.67,0,0,0,.54.37,10,10,0,0,0,1.27.66,29.13,29.13,0,0,1,2.91,1.45,7.14,7.14,0,0,1,1.38,1.08,4.26,4.26,0,0,1,.93,1.48l-.3-.35a4.86,4.86,0,0,0-1-.77,19.17,19.17,0,0,0-4-1.5,9.26,9.26,0,0,1-2.66-1.29,23.12,23.12,0,0,1-2.17-2.13,7,7,0,0,0-1-.9,2.29,2.29,0,0,0-1.16-.43A5,5,0,0,0,396.55,591.59Z"/><path class="cls-22" d="M415.75,598.08l.62,0a3.93,3.93,0,0,0,.73,0,6.28,6.28,0,0,0,1-.15,7.41,7.41,0,0,0,2.41-1,23.57,23.57,0,0,0,2.76-2,16,16,0,0,1,3.61-2.36,10.6,10.6,0,0,1,4.85-.78c1.67.09,3.33.38,5,.62a20.28,20.28,0,0,0,5.05.3l-.67.19a13.65,13.65,0,0,1-1.93.31,25.67,25.67,0,0,1-3,.05c-1.14,0-2.4-.12-3.72-.14a14.16,14.16,0,0,0-4,.4,13.89,13.89,0,0,0-3.84,2,18.88,18.88,0,0,1-4.15,2.44A7.6,7.6,0,0,1,415.75,598.08Z"/><ellipse class="cls-26" cx="400.92" cy="751.07" rx="158.18" ry="20.58"/><path id="SVGID-5" data-name="SVGID" class="cls-27" d="M250.1,643.29s14.93,36.83,20.22,48.84,14.51,53.64,29.44,58.85,47.21,6,90,6.41c44.13.41,105.45.45,117.36-15.75,10.59-14.41,12.32-42.71,17.62-57.52s18.59-46,21-54.45-52.51.81-70.56-2.4-76.39,7.21-91.28,12-40.3-2-67.32-6S270.32,632.08,250.1,643.29Z"/><g class="cls-28"><path class="cls-29" d="M250.1,643.29s14.93,36.83,20.22,48.84,14.34,55.29,29.27,60.49S347,757,389.78,757.39s104.83,0,115.42-14.39,9.55-43.93,14.84-58.74S538,635,540.36,626.6s-47.11,3.88-65.16.67-76.39,7.21-91.28,12-40.3-2-67.32-6S270.32,632.08,250.1,643.29Z"/></g><g class="cls-28"><path class="cls-30" d="M315,748.47c-12.32-2.79-19.38-5.88-24.34-17.31s-27.94-68.41-24.56-71.83,23.37-7.86,39.44-6.06S375.43,673,389,671.68s44.91-20.92,59.48-21.91,39.61,11.59,46.09,10.43,3.73,31.26,1.39,45.22S493.54,742,480.1,745,370.35,761.05,315,748.47Z"/></g><g class="cls-28"><path class="cls-31" d="M384.88,678.87c-12.52-.36-55.93-18.52-77.56-19.37s-26.59,0-29.05,6.79,18,67.54,24.84,74.23,90.59,5.26,101.25,2.12S416.25,679.77,384.88,678.87Z"/></g><g class="cls-28"><path class="cls-32" d="M528.3,703.05c-6.15-2.7-12.23-5.52-18.17-8.42,5.9-5.78,11.54-11.45,16.65-16.79,2,.92,3.89,1.76,5.63,2.49l1.58-3.72c-1.34-.56-2.77-1.19-4.27-1.87,4.93-5.25,9.28-10.13,12.75-14.41l-.9-.73.28-.52c-8.44-4.49-19.18-12.08-24.63-16.05l1.69-2.15-3.2-2.47L514,640.63l-.26-.2-2.44,3.22.16.13c-3.88,4.76-8.31,9.9-13.13,15.28-7.49-3.94-14.83-7.89-21.07-11.3q3-3.45,5.81-6.83l-3.11-2.58q-3,3.66-6.33,7.43c-8.4-4.6-14.11-7.8-14.28-7.9l-2,3.52c.17.1,5.54,3.11,13.52,7.49-4.66,5.26-9.61,10.65-14.74,16.07-8.34-5.07-15.52-9.65-21.14-13.34,3.85-4.45,7.41-8.72,10.56-12.73l-3.18-2.5c-3.2,4.09-6.84,8.45-10.79,13-6.41-4.26-10.09-6.88-10.22-7L419,645.69c.13.09,3.69,2.62,9.89,6.75-5.6,6.33-11.75,13-18.2,19.71-5.49-3.55-10.36-6.82-14.53-9.7,4.1-4.37,8.08-8.74,11.87-13.07l-3-2.66c-3.89,4.44-8,8.91-12.18,13.39-8.63-6.07-13.49-9.91-13.66-10l-2.52,3.16c.17.14,4.93,3.89,13.38,9.85-6,6.31-12.25,12.59-18.55,18.75-5.51-3.62-10.73-7.13-15.62-10.48,8.21-8.33,16.22-17.09,23.49-26l-3.14-2.55c-7.33,9-15.43,17.85-23.73,26.25-5.64-3.9-10.81-7.57-15.44-10.92a164,164,0,0,0,11.88-14.91l-3.32-2.3a161.94,161.94,0,0,1-11.84,14.83c-7.54-5.51-13.45-10-17.41-13.09a81.23,81.23,0,0,0,6.41-7.84l-3.31-2.31a78.83,78.83,0,0,1-6.29,7.65l-2.58-2L308,641.2c.08.07.89.73,2.36,1.89-4.58,4.77-10.07,10-15.67,15-5.42-4.06-10.06-7.58-13.73-10.4,3.22-3,6.55-5.86,9.86-8.53l-2.55-3.14c-3.54,2.87-7.12,6-10.57,9.17-3.82-2.94-6-4.66-6.16-4.78L269,643.63c.15.12,2.16,1.69,5.68,4.41-7.11,6.72-13.47,13.36-17.65,17.85l-2.39-1.82-2.48,3.19,2.12,1.62c-1.5,1.63-2.36,2.61-2.4,2.66l3,2.66s1-1.1,2.59-2.87c2.9,2.18,6.87,5.14,11.73,8.69-4.46,3.68-7.35,6-7.47,6.08l2.52,3.16c.47-.37,3.65-2.91,8.33-6.77,5.47,4,11.85,8.52,18.87,13.4-5.25,4.42-9.83,8.14-13.24,10.86-2.4-1.87-3.76-3-3.84-3l-2.54,3.14c.07.06,1.17.94,3.11,2.46-1.89,1.47-3,2.31-3.06,2.36l2.44,3.23c.09-.07,1.51-1.15,3.92-3,3.45,2.66,8.16,6.21,13.75,10.28-7.5,5.82-12.19,9.2-12.36,9.32l2.35,3.29c.18-.13,5.3-3.82,13.42-10.14,4.94,3.55,10.44,7.4,16.29,11.33-12.48,10.61-20.71,17.21-20.95,17.4l2.53,3.16c.24-.2,8.89-7.13,21.92-18.23,5.28,3.48,10.79,7,16.39,10.36-7.23,6.61-11.72,10.61-11.91,10.79l2.69,3c.2-.18,5.06-4.52,12.84-11.65,6.39,3.76,12.85,7.3,19.17,10.39-.43.37-.68.59-.73.62l2.64,3.07c.25-.21,7.8-6.72,19.43-17.13,8,4.06,15.79,7.7,23.23,10.7-2.25,2.11-3.56,3.32-3.66,3.41l2.75,3c.12-.11,1.95-1.81,5.08-4.75,2.69,1,5.33,2,7.9,2.79l1.24-3.85c-1.91-.62-3.87-1.29-5.85-2,3.25-3.07,7.33-6.93,12-11.39,6.69,3.68,13.21,7.08,19.47,10.1-4.27,3.76-6.83,6-7,6.11l2.65,3c.15-.13,3.23-2.81,8.29-7.28,4.18,1.94,8.23,3.7,12.12,5.23l1.49-3.75q-5-2-10.3-4.4c4.87-4.32,11-9.79,17.83-16q8.87,4.26,18,8.27c-7.26,6.43-12.24,10.76-12.4,10.9l2.65,3c.68-.59,6.17-5.36,13.84-12.16,4.51,1.94,9.05,3.84,13.62,5.66l1.5-3.75q-5.92-2.37-11.78-4.88c6.2-5.53,13.44-12,20.57-18.64q5,1.89,10,3.68l1.35-3.81c-2.71-1-5.39-1.94-8-2.94,11-10.2,21.27-20.23,26.73-26.68L536,694.78C534,697.1,531.39,699.91,528.3,703.05Zm-22-10.31c-7.86-3.9-15.47-7.91-22.68-11.86,5.44-5.72,10.69-11.36,15.6-16.78,8.23,4.3,16.53,8.52,23.71,11.93C517.8,681.36,512.17,687,506.29,692.74Zm-171.93-.81c5,3.47,10.06,7,15.27,10.57-6,5.5-11.8,10.74-17.32,15.63-5.48-3.44-10.86-6.92-16.07-10.35C322,703,328.08,697.64,334.36,691.93Zm-21.63,13.52c-5.07-3.37-10-6.68-14.6-9.89,5.72-4.91,12-10.49,18.29-16.42,4.65,3.36,9.52,6.84,14.56,10.4C324.63,695.29,318.46,700.63,312.73,705.45Zm40.33-.62c4.87,3.31,9.83,6.62,14.83,9.91-5.62,5.38-11,10.51-16.09,15.24-5.34-3.13-10.67-6.35-15.92-9.62C341.37,715.49,347.15,710.29,353.06,704.83Zm3-2.81c5.24-4.86,10.56-9.9,15.86-15q7.1,4.62,14.78,9.44c-5.35,5.27-10.68,10.46-15.87,15.45C365.89,708.61,361,705.31,356.1,702Zm15.26,15c6.3,4.11,12.65,8.15,19,12.07-5.52,5.06-10.64,9.71-15.22,13.81-6.49-3.36-13.09-7-19.68-10.79C360.45,727.4,365.81,722.33,371.36,717Zm3-2.87c5.21-5,10.56-10.23,15.93-15.53,6.39,3.95,13.05,8,19.93,12-5.8,5.49-11.44,10.75-16.77,15.67C387.07,722.33,380.68,718.27,374.34,714.14Zm18.88-18.46c6.11-6.07,12.2-12.24,18.08-18.34,6.14,3.91,13,8.12,20.43,12.46-6.19,6.11-12.41,12.11-18.47,17.88C406.34,703.66,399.64,699.65,393.22,695.68Zm20.63,17q10.15,5.85,20.91,11.63c-6.09,5.93-11.82,11.44-16.92,16.32-6.82-3.82-13.8-7.91-20.83-12.2C402.37,723.49,408,718.21,413.85,712.69Zm3.06-2.9C423,704,429.17,698,435.36,691.89c6.51,3.74,13.45,7.55,20.76,11.35-6.25,6.26-12.43,12.36-18.33,18.12C430.65,717.54,423.67,713.67,416.91,709.79Zm21.42-20.85c6.26-6.23,12.48-12.55,18.48-18.84,6.22,3.75,13,7.72,20.27,11.77-5.89,6.13-11.94,12.31-18,18.37C451.8,696.46,444.85,692.67,438.33,688.94Zm21.56,16.25c7.06,3.6,14.45,7.18,22.11,10.66-6.81,6.33-13.48,12.44-19.63,18q-10.61-5.14-20.83-10.54C447.45,717.56,453.64,711.45,459.89,705.19Zm3-3c6-6,12-12.19,17.85-18.28,7.15,3.94,14.68,7.92,22.49,11.83-5.9,5.71-12,11.49-18,17.13C477.47,709.39,470,705.8,462.88,702.18Zm51.8-56c4.83,3.53,13.93,10,22.08,14.69-3.14,3.7-6.83,7.77-10.91,12.08-7.12-3.36-15.5-7.59-23.86-12C506.64,655.78,510.92,650.81,514.68,646.18Zm-40.18,4.7c6.18,3.37,13.49,7.31,21,11.28-4.89,5.4-10.13,11-15.55,16.69-7.25-4-14.07-8-20.31-11.75C464.83,661.62,469.81,656.19,474.5,650.88Zm-42.21,3.81c5.56,3.66,12.68,8.21,21,13.27-6,6.31-12.28,12.65-18.57,18.89-7.49-4.34-14.37-8.56-20.55-12.49C420.58,667.63,426.71,661,432.29,654.69Zm-38.93,10.73c4.15,2.87,9,6.14,14.48,9.69-5.91,6.12-12,12.3-18.15,18.39q-7.67-4.79-14.77-9.41C381.18,678,387.38,671.7,393.36,665.42Zm-40.69,34.27q-7.8-5.33-15.26-10.55c5.15-4.74,10.37-9.72,15.54-14.88,4.86,3.34,10.06,6.84,15.55,10.45C363.2,689.84,357.89,694.85,352.67,699.69Zm-3.1-27.76c-5.18,5.15-10.4,10.11-15.54,14.83-5.07-3.58-10-7.08-14.63-10.45,5.12-4.92,10.19-10,14.9-15.19C338.88,664.43,344,668.06,349.57,671.93Zm-36-26.33c3.93,3.06,9.86,7.58,17.46,13.13-4.72,5.14-9.8,10.26-14.94,15.18-6.58-4.77-12.66-9.26-18.08-13.29C303.56,655.56,309,650.38,313.56,645.6Zm-53.27,22.74c4.23-4.54,10.59-11.15,17.66-17.81,3.62,2.78,8.25,6.29,13.67,10.36-6.89,6.15-13.74,12-19.15,16.47C267.45,673.7,263.31,670.61,260.29,668.34Zm15.57,11.48c5.46-4.55,12.27-10.34,19.08-16.45,5.43,4,11.54,8.56,18.16,13.37-6.35,6-12.68,11.55-18.4,16.45C287.71,688.34,281.35,683.8,275.86,679.82Zm5.71,29.47c3.53-2.82,8.15-6.58,13.38-11,4.62,3.19,9.5,6.5,14.55,9.87-5.21,4.33-10,8.17-14.13,11.42C289.83,715.56,285.11,712,281.57,709.29ZM298.78,722c4.2-3.32,9-7.2,14.23-11.55,5.23,3.46,10.64,6.95,16.15,10.43-5.08,4.47-9.85,8.6-14.21,12.32C309.17,729.37,303.71,725.56,298.78,722Zm19.68,13.53c4.38-3.76,9.18-7.93,14.27-12.41,5.27,3.29,10.63,6.54,16,9.7-5.19,4.85-9.92,9.22-14,12.95C329.19,742.48,323.72,739,318.46,735.56Zm39.29,22.75c-6.36-3-12.89-6.59-19.36-10.36,4.1-3.77,8.82-8.14,14-13,6.53,3.78,13.09,7.41,19.55,10.79C365.82,751.23,360.92,755.54,357.75,758.31Zm44.52-2.91c-7.43-2.92-15.25-6.5-23.28-10.54,4.52-4.07,9.55-8.63,14.93-13.58,7,4.3,14,8.42,20.87,12.27C409.79,748.31,405.52,752.34,402.27,755.4Zm39-2.59c-6.31-3-12.91-6.41-19.7-10.12,5.14-4.92,10.88-10.45,17-16.38q10.13,5.34,20.64,10.49C452.18,743.08,446,748.58,441.24,752.81Zm43.11-8.8q-9.12-4-18.05-8.25c6.2-5.63,12.89-11.77,19.7-18.12,6.11,2.71,12.39,5.35,18.81,7.87C497.63,732.11,490.43,738.6,484.35,744Zm4.86-29.37c6-5.61,12-11.35,17.85-17,5.94,2.91,12,5.76,18.18,8.49-5.06,5-11,10.67-17.12,16.34Q498.45,718.71,489.21,714.64Z"/><path class="cls-33" d="M527.38,701.1c-6.15-2.71-12.23-5.53-18.17-8.43,5.9-5.78,11.54-11.45,16.65-16.79,2,.92,3.89,1.76,5.62,2.5l1.58-3.73c-1.33-.56-2.76-1.19-4.26-1.87,4.93-5.25,9.28-10.13,12.75-14.41l-.9-.73.28-.52c-8.44-4.49-19.18-12.08-24.63-16,.58-.73,1.14-1.45,1.68-2.15l-3.2-2.47-1.73,2.22-.26-.2-2.44,3.22.16.13c-3.88,4.76-8.31,9.9-13.13,15.28-7.5-3.94-14.83-7.89-21.07-11.3q3-3.45,5.81-6.82L479,636.39c-2,2.44-4.15,4.92-6.33,7.43-8.4-4.6-14.11-7.8-14.28-7.9l-2,3.52c.17.1,5.54,3.11,13.52,7.49-4.66,5.27-9.61,10.65-14.74,16.07-8.34-5.06-15.52-9.65-21.15-13.34,3.86-4.44,7.42-8.72,10.57-12.73l-3.18-2.5c-3.2,4.09-6.84,8.45-10.79,13-6.41-4.26-10.09-6.88-10.23-7l-2.35,3.29c.14.09,3.7,2.62,9.89,6.75-5.59,6.33-11.75,13-18.19,19.71-5.49-3.55-10.36-6.82-14.53-9.7,4.1-4.37,8.08-8.74,11.87-13.07l-3.05-2.66c-3.88,4.44-8,8.92-12.17,13.39-8.63-6.07-13.5-9.9-13.67-10l-2.51,3.16c.17.14,4.93,3.89,13.38,9.85-6,6.31-12.26,12.6-18.55,18.75-5.51-3.62-10.73-7.13-15.62-10.48,8.21-8.33,16.22-17.09,23.48-26l-3.13-2.55c-7.34,9-15.43,17.86-23.73,26.25-5.64-3.9-10.81-7.57-15.44-10.92A165.28,165.28,0,0,0,348,641.24l-3.32-2.31a161.94,161.94,0,0,1-11.84,14.83c-7.55-5.51-13.45-10-17.41-13.09a81.23,81.23,0,0,0,6.41-7.84l-3.31-2.31a77.63,77.63,0,0,1-6.3,7.65l-2.57-2-2.56,3.13c.08.06.89.72,2.36,1.88-4.59,4.77-10.07,10-15.67,15-5.42-4.06-10.06-7.58-13.74-10.4,3.23-2.95,6.56-5.86,9.87-8.53l-2.55-3.14c-3.54,2.87-7.12,6-10.57,9.18-3.83-2.95-6-4.67-6.16-4.79l-2.51,3.17c.15.12,2.16,1.69,5.68,4.41-7.12,6.72-13.47,13.36-17.66,17.85l-2.38-1.82-2.48,3.19,2.11,1.62c-1.49,1.64-2.35,2.61-2.39,2.66l3,2.66s1-1.1,2.59-2.87c2.89,2.18,6.87,5.15,11.73,8.69-4.46,3.68-7.36,6-7.47,6.08l2.52,3.16c.47-.37,3.65-2.91,8.33-6.77,5.47,4,11.84,8.52,18.86,13.4-5.24,4.42-9.82,8.14-13.23,10.86-2.4-1.86-3.76-3-3.84-3L271,704.91c.07.06,1.17.94,3.11,2.46-1.89,1.47-3,2.31-3.06,2.36l2.44,3.23c.09-.07,1.51-1.15,3.91-3,3.46,2.66,8.17,6.21,13.76,10.28-7.5,5.83-12.2,9.2-12.36,9.32l2.35,3.29c.17-.13,5.3-3.82,13.42-10.14,4.94,3.55,10.44,7.4,16.29,11.33-12.49,10.61-20.71,17.21-20.95,17.4l2.52,3.16c.25-.2,8.89-7.13,21.93-18.23,5.28,3.48,10.79,7,16.38,10.36-7.22,6.61-11.71,10.61-11.9,10.79l2.69,3c.2-.18,5.06-4.52,12.84-11.64,6.39,3.75,12.85,7.29,19.16,10.38l-.72.62,2.64,3.07c.24-.21,7.8-6.72,19.42-17.13,8,4.06,15.8,7.7,23.24,10.7-2.25,2.11-3.56,3.32-3.66,3.41l2.74,3c.13-.11,1.95-1.81,5.09-4.75,2.69,1,5.33,2,7.9,2.79l1.24-3.85c-1.91-.62-3.87-1.29-5.86-2,3.26-3.07,7.34-6.93,12-11.39,6.68,3.68,13.21,7.08,19.46,10.1-4.26,3.76-6.82,6-7,6.11l2.65,3c.15-.13,3.23-2.81,8.29-7.28,4.18,1.94,8.23,3.7,12.12,5.24l1.48-3.76c-3.31-1.32-6.75-2.79-10.29-4.4,4.87-4.32,11-9.79,17.83-16q8.87,4.26,18,8.27c-7.26,6.43-12.24,10.76-12.4,10.9l2.65,3.05c.68-.59,6.17-5.36,13.84-12.16,4.51,1.94,9.05,3.84,13.62,5.66l1.5-3.75q-5.93-2.37-11.79-4.88c6.21-5.53,13.44-12.05,20.58-18.64q5,1.89,10,3.68l1.35-3.81c-2.71-.95-5.39-1.94-8.05-2.94,11-10.2,21.27-20.23,26.73-26.67l-3.08-2.62C533.11,695.14,530.47,698,527.38,701.1Zm-22-10.32c-7.87-3.9-15.47-7.91-22.68-11.86,5.44-5.72,10.69-11.36,15.6-16.78,8.23,4.3,16.53,8.52,23.71,11.93C516.88,679.4,511.25,685,505.37,690.78ZM333.44,690c5,3.47,10.06,7,15.27,10.57-6,5.5-11.8,10.74-17.32,15.63-5.48-3.44-10.86-6.92-16.07-10.35C321,701,327.16,695.68,333.44,690Zm-21.63,13.52c-5.07-3.37-10-6.68-14.6-9.88,5.72-4.91,12-10.49,18.29-16.42,4.64,3.35,9.51,6.83,14.56,10.39C323.71,693.33,317.54,698.68,311.81,703.49Zm40.33-.61c4.87,3.3,9.83,6.62,14.83,9.9-5.63,5.38-11.05,10.51-16.09,15.24-5.35-3.13-10.67-6.35-15.92-9.61C340.45,713.54,346.23,708.33,352.14,702.88Zm3-2.82c5.24-4.86,10.56-9.9,15.86-15q7.09,4.62,14.78,9.44c-5.35,5.28-10.68,10.46-15.87,15.46Q362.48,705,355.18,700.06Zm15.25,15c6.31,4.11,12.66,8.15,19,12.07-5.51,5.06-10.64,9.71-15.21,13.81-6.49-3.36-13.09-7-19.69-10.79C359.53,725.44,364.89,720.37,370.43,715.05Zm3-2.87c5.21-5,10.56-10.23,15.92-15.53,6.39,4,13.05,8,19.94,12-5.8,5.5-11.44,10.75-16.77,15.67C386.15,720.37,379.76,716.31,373.42,712.18Zm18.88-18.46c6.11-6.07,12.2-12.24,18.08-18.34,6.14,3.91,13,8.12,20.43,12.46-6.2,6.11-12.41,12.11-18.47,17.88Q401.95,699.69,392.3,693.72Zm20.63,17q10.15,5.85,20.91,11.63c-6.09,5.93-11.82,11.44-16.92,16.32-6.82-3.81-13.8-7.91-20.83-12.2C401.45,721.53,407.11,716.25,412.93,710.73Zm3.05-2.9c6.07-5.78,12.27-11.78,18.46-17.9,6.51,3.74,13.45,7.55,20.76,11.35-6.25,6.26-12.43,12.36-18.33,18.12Q426.16,713.67,416,707.83ZM437.41,687c6.26-6.24,12.48-12.56,18.47-18.85,6.22,3.75,13,7.72,20.27,11.77-5.88,6.13-11.93,12.31-18,18.38C450.88,694.5,443.93,690.71,437.41,687ZM459,703.23c7.07,3.6,14.46,7.18,22.12,10.66-6.81,6.34-13.48,12.44-19.63,18q-10.6-5.14-20.83-10.53C446.53,715.6,452.72,709.49,459,703.23Zm3-3c6-6.05,12-12.19,17.85-18.28,7.14,3.94,14.68,7.93,22.49,11.83-5.9,5.71-12,11.49-18,17.13C476.55,707.43,469.09,703.84,462,700.22Zm51.8-56c4.82,3.52,13.93,10,22.08,14.68-3.14,3.7-6.83,7.77-10.91,12.08-7.13-3.36-15.5-7.59-23.86-12C505.72,653.82,510,648.85,513.76,644.23Zm-40.18,4.69c6.18,3.37,13.49,7.31,21,11.28-4.89,5.4-10.13,11-15.55,16.69-7.25-4-14.07-8-20.31-11.75C463.9,659.67,468.89,654.23,473.58,648.92Zm-42.21,3.81c5.56,3.66,12.68,8.21,21,13.27-6,6.31-12.28,12.65-18.57,18.9-7.49-4.35-14.37-8.56-20.55-12.5C419.66,665.67,425.79,659.05,431.37,652.73Zm-38.93,10.73c4.14,2.87,9,6.14,14.47,9.69-5.9,6.12-12,12.3-18.14,18.39q-7.66-4.78-14.77-9.41C380.26,676,386.46,669.74,392.44,663.46Zm-40.69,34.27c-5.2-3.55-10.31-7.08-15.26-10.55,5.14-4.74,10.37-9.72,15.53-14.88,4.87,3.34,10.07,6.84,15.55,10.45C362.28,687.88,357,692.89,351.75,697.73ZM348.65,670c-5.18,5.15-10.4,10.11-15.54,14.83q-7.61-5.37-14.63-10.45c5.12-4.92,10.19-10,14.9-15.19C338,662.47,343.07,666.1,348.65,670Zm-36-26.33c3.93,3.06,9.86,7.58,17.46,13.13-4.72,5.15-9.81,10.27-14.94,15.18-6.58-4.77-12.66-9.26-18.08-13.29C302.64,653.6,308.07,648.42,312.64,643.64Zm-53.27,22.74c4.23-4.54,10.59-11.15,17.66-17.81,3.62,2.78,8.25,6.3,13.67,10.36-6.89,6.15-13.75,12-19.15,16.48C266.53,671.74,262.39,668.65,259.37,666.38Zm15.57,11.49c5.46-4.56,12.27-10.35,19.08-16.45,5.43,4,11.53,8.55,18.16,13.36-6.35,6-12.68,11.56-18.4,16.45C286.79,686.38,280.43,681.85,274.94,677.87Zm5.71,29.46c3.53-2.82,8.15-6.58,13.38-11,4.62,3.19,9.49,6.5,14.55,9.87-5.21,4.33-10,8.17-14.13,11.42C288.91,713.6,284.19,710.05,280.65,707.33Zm17.21,12.74c4.2-3.32,9-7.2,14.23-11.55,5.23,3.46,10.64,7,16.15,10.43-5.08,4.47-9.86,8.6-14.21,12.33C308.25,727.41,302.79,723.6,297.86,720.07Zm19.68,13.53c4.38-3.76,9.18-7.93,14.27-12.41,5.27,3.29,10.62,6.54,16,9.7-5.19,4.85-9.92,9.22-14,13C328.27,740.52,322.79,737.05,317.54,733.6Zm39.29,22.75c-6.36-3.05-12.89-6.59-19.37-10.36,4.11-3.77,8.83-8.14,14-13,6.54,3.78,13.09,7.41,19.56,10.79C364.89,749.27,360,753.58,356.83,756.35Zm44.52-2.91c-7.43-2.92-15.25-6.5-23.28-10.54,4.52-4.07,9.55-8.63,14.93-13.58,7,4.3,14,8.42,20.87,12.27C408.87,746.35,404.6,750.38,401.35,753.44Zm39-2.59c-6.31-3-12.92-6.41-19.7-10.12,5.14-4.92,10.88-10.45,17-16.38q10.11,5.34,20.64,10.49C451.26,741.12,445.09,746.62,440.32,750.85Zm43.11-8.8q-9.12-4-18.05-8.25c6.2-5.63,12.89-11.77,19.7-18.12,6.11,2.71,12.39,5.35,18.81,7.87C496.71,730.16,489.51,736.64,483.43,742.05Zm4.86-29.37c6-5.61,12-11.35,17.85-17,5.94,2.91,12,5.76,18.18,8.5-5.06,5-11,10.66-17.13,16.33Q497.53,716.75,488.29,712.68Z"/></g><g class="cls-28"><path class="cls-34" d="M387.79,696.74c3.22-3.18,6.28-6.49,9.29-9.86s6.17-6.58,8.59-10.24c.33-.49-.17-1.18-.72-.8-6.62,4.48-11.49,11.89-17.08,17.54-6.7,6.77-13.68,13.27-20.65,19.77-5.79,5.4-11.46,10.91-17.14,16.41-4.36-4.28-10.32-7.22-15.75-10.31,2.73-2.36,5.4-4.8,8.09-7.27q5.16-4.72,10.24-9.52a123.91,123.91,0,0,0,13.81,8.31c1,.49,1.64-.78,1-1.48-2.45-2.57-5.78-4.25-8.83-6q-2.13-1.21-4.23-2.48c2.7-2.54,5.4-5.1,8.07-7.67,6-5.78,12.41-11.66,17.58-18.23a.49.49,0,0,0-.66-.72c-6.79,4.25-12,11-17.82,16.45q-4.67,4.41-9.3,8.86c-1.44-.91-2.87-1.85-4.26-2.85-4.35-3.13-8.84-6.08-13.33-9,1.77-1.69,3.53-3.38,5.25-5.1,4.82-4.79,11.61-9.59,14.65-15.79a.56.56,0,0,0-.82-.7c-2.57,1.88-4.67,4.44-6.91,6.69-2.53,2.56-5.15,5-7.73,7.53-2.1,2.05-4.23,4.08-6.36,6.11-2.22-1.44-4.43-2.88-6.62-4.35-3.39-2.25-6.64-4.61-9.82-7.06,6.25-5.49,12.49-11.05,17.86-17.34a.85.85,0,0,0-1.13-1.25c-4.94,3.21-8.5,8.42-12.93,12.28q-2.81,2.45-5.58,4.92-4-3.15-7.88-6.49c-5.72-4.9-11.52-9.63-18.48-12.63a.29.29,0,0,0-.24.52c6.74,3.86,12.71,9,18.58,14q3.38,2.9,6.81,5.65-3.31,3-6.59,6c-4.21,3.9-8.52,7.71-12.81,11.54-7.87-5.58-15.76-11.13-23.88-16.28-.39-.26-.81.39-.44.68,7.43,5.81,15,11.5,22.69,17-4.53,4-9,8.09-13.4,12.26-.46.44.22,1.12.71.79a122.66,122.66,0,0,0,14.65-11.62q7.15,5.14,14.38,10.15l2.41,1.65c-1.25,1.09-2.51,2.16-3.81,3.19-5.54,4.43-11.51,8.3-17,12.74-.3.24-.06.8.33.63,6.11-2.73,11.57-7,16.69-11.3l5.17-4.33c5.16,3.52,10.37,7,15.69,10.23.79.49,1.59,1,2.39,1.44-2.84,2.37-5.75,4.67-8.8,6.85-5.48,3.93-11.61,8-14.91,14-.3.56.49,1,.9.58a120,120,0,0,1,17-14c2.76-2,5.39-4.06,8-6.22q3.18,1.86,6.39,3.7c3.39,2,6.72,4.23,10.27,5.91-7,6.77-14.06,13.51-21.41,20a.49.49,0,0,0,.56.81c6.89-4.28,12.74-10,18.55-15.67q10-9.65,20.15-19Q377.64,706.81,387.79,696.74Zm-77.72,6.81c-4.75-3.27-9.47-6.61-14.18-10,3.89-3.56,7.69-7.22,11.51-10.71,2.52-2.3,5.1-4.56,7.68-6.83,3.55,2.79,7.18,5.47,10.94,8,1.78,1.22,3.57,2.42,5.36,3.63L323.7,695c-3.63,3.47-7.22,7-10.95,10.36Zm21.15,13.86q-8.64-5.38-17.07-11.09c3.19-2.72,6.36-5.47,9.42-8.31,3.24-3,6.49-6,9.7-9,4.5,3,9,6,13.39,9.24,1.3.95,2.63,1.9,4,2.84q-5,4.73-10,9.4c-2.79,2.59-5.59,5.11-8.44,7.56Z"/><path class="cls-34" d="M428.56,692.05c-5.47,3.61-10.08,9.17-14.88,13.64-5.63,5.24-11.36,10.4-17.05,15.59-11.23,10.22-22.41,20.66-34.11,30.34-.53.44.05,1.31.61.89,11.56-8.84,22.38-18.35,33-28.28,5.63-5.26,11.26-10.5,17-15.67,2.78-2.52,5.52-5.06,8.25-7.62s5.78-5.08,7.84-8.17C429.5,692.33,429.05,691.73,428.56,692.05Z"/></g><path class="cls-35" d="M527.5,647.76a51,51,0,0,1-25.93,3.93c-8.91-.86-17.6-3.24-26.25-5.42-18.55-4.69-38.08,1.58-55.45,7.9-9,3.27-17.95,7.42-27.58,8.22-10.57.87-21.7-2.77-32.07-4.45-19.62-3.19-38.53-11.1-58.56-11.45a122.38,122.38,0,0,0-22.11,2c-6.75,1.11-14.41,2-20.59,5-.56.27-.67,1.32.11,1.37,4.83.29,9.57-.87,14.34-1.62,5.6-.89,11.22-1.66,16.88-2.06a102.15,102.15,0,0,1,31.44,3c9.75,2.33,19.26,5.54,29.06,7.68,10.34,2.25,21,4.11,31.53,5.5,9.75,1.29,18.44-.35,27.63-3.62s18-6.78,27.28-9.48c9.51-2.77,19.53-4.62,29.47-3.81,8.86.73,17.51,4,26.24,5.64,11.46,2.14,27.63,3.71,36.8-5.1C531.21,649.59,529.32,647,527.5,647.76Z"/><path class="cls-36" d="M232.77,626.75s16.15,30.45,20.35,29.7S292.47,647,306,648s65.49,18.3,83.3,18.3,41.57-17.39,63.4-19.77,32.9,8.21,47.35,6.77,29.37-6.32,38-6.77,14-26,20.71-33.68c0,0,13-3.85,14-9.15s-15.41-6.74-29.85-3.37-34.19,14.44-46.71,8.67-33.67-16.38-54.63-13-62.28,22.15-79.67,19.75S307.4,600.8,280,599.84s-60.19,18.29-58.74,23.59S232.77,626.75,232.77,626.75Z"/><path class="cls-37" d="M236.55,623.77s.71-.38,2.06-1,3.34-1.59,5.92-2.67,5.74-2.34,9.45-3.59a107.21,107.21,0,0,1,12.68-3.5,69.79,69.79,0,0,1,15.61-1.63c5.6.2,11.31.87,17.28,1.65a341.42,341.42,0,0,1,36.77,7.39l-9.68-1.32c-6.07-.84-14.62-2-24.53-3.13-5-.55-10.25-1.09-15.75-1.49l-2.07-.17-2-.06c-.69,0-1.37-.05-2.06,0l-2.09.08c-.69,0-1.39,0-2.09.11l-2.11.2c-1.41.1-2.82.33-4.24.53a147.49,147.49,0,0,0-16.9,3.64C247.2,620.26,241.75,621.94,236.55,623.77Z"/><path class="cls-37" d="M366.6,626.6l10.57-2.27c6.71-1.45,16.31-3.49,27.78-6.12,5.72-1.33,11.93-2.77,18.39-4.54,1.6-.48,3.25-.91,4.87-1.43l2.44-.79,2.6-.8c.44-.12.87-.27,1.31-.38l1.35-.3c.89-.19,1.79-.43,2.7-.57l2.75-.43c.92-.16,1.85-.2,2.79-.31,1.86-.22,3.74-.26,5.64-.36.94,0,1.89,0,2.85,0s1.9,0,2.86,0l2.88.1,2.88.21c1,.06,1.93.17,2.9.27s1.93.19,2.89.33c3.87.49,7.73,1.19,11.57,2A85,85,0,0,1,490,614.62l-.8-.2c-.52-.13-1.28-.36-2.29-.58-2-.46-5-1.09-8.68-1.64s-8.24-1.08-13.34-1.38a121.26,121.26,0,0,0-16.89.11,83.08,83.08,0,0,0-9.28,1.25l-2.35.56-1.18.28-1.16.37-2.34.73-2.46.82c-6.61,2.09-13.54,3.67-20.56,5.14C394.56,623,380.09,625.2,366.6,626.6Z"/><path class="cls-37" d="M513.48,618l3.51-.67c2.23-.41,5.41-1,9.22-1.62l3-.5,3.14-.56,6.8-1.34c1.2-.21,2.41-.47,3.67-.61s2.54-.28,3.82-.4,2.61-.07,3.91-.07,2.63.22,3.92.36l-1,.17-1.24.19a15.45,15.45,0,0,0-1.64.27l-2,.43c-.72.15-1.5.29-2.31.52-1.63.45-3.45.83-5.39,1.41s-4,1.08-6.28,1.56c-1.12.27-2.27.42-3.43.6s-2.33.31-3.52.42A64.91,64.91,0,0,1,513.48,618Z"/><path class="cls-38" d="M241.08,631.51c-2.27-10.66,28.31-13.74,37.36-14s36.07,1.75,49.95,7.28,8.54,25.36,4.7,24.65-21.31-7.88-35.81-7.41c-6.33.21-39.92,8.07-43.27,7.61S243.11,641,241.08,631.51Z"/><path class="cls-38" d="M385.11,658.9c4.61,2.9,26.29-5.17,42.25-12.81s37.54-2,39.14-10.41.5-19.89-7.39-21.17c-9-1.45-25.13-1.12-43.36,6.72-8.27,3.56-36.23,4.43-39.36,12.4S377.64,654.2,385.11,658.9Z"/><path class="cls-38" d="M507.69,623.77a127.47,127.47,0,0,0,18.08-1.12c8.26-1.26,12.25,1.35,9.05,13s-19.56,8.64-23.2,10.42S506.49,629.31,507.69,623.77Z"/><path class="cls-38" d="M328.27,611.86c-3.71-2-8.61-2.39-12.71-3.34a96.22,96.22,0,0,0-13.67-2.45c-4.52-.38-9.08-.31-13.61-.71s-9.08-.9-13.65-.88c-8.58,0-17.29,3.13-25.25,6-4.14,1.51-8.24,3.13-12.36,4.71s-9.28,2.86-12.68,5.67a1.69,1.69,0,0,0,1.1,3.06c3.73,0,7.53-2.06,10.91-3.49,4.08-1.72,8.05-3.67,12.16-5.32,8.4-3.38,17.34-6.44,26.45-6.87a87.71,87.71,0,0,1,12.64.84c4.52.46,9.06.46,13.59.79a89.39,89.39,0,0,1,13.66,2.49c4.07.93,8.76,2.71,12.95,2A1.37,1.37,0,0,0,328.27,611.86Z"/><path class="cls-38" d="M471.86,605.52c-6.29-5.15-16.71-6.26-24.55-6.41-9.05-.18-18,2.52-26.4,5.6s-17,6.54-25.58,9.37a107.13,107.13,0,0,1-13.4,3.46c-4.23.8-8.87.28-13,1.41a1.41,1.41,0,0,0-.13,2.57c3.29,1.5,7.62.89,11.11.5a77.34,77.34,0,0,0,12.23-2.59c8.34-2.33,16.44-5.56,24.52-8.65,8.43-3.23,17-6.1,26.08-6.92a51.4,51.4,0,0,1,14.43.9c4.67.91,9.23,2.88,14.05,2.66A1.09,1.09,0,0,0,471.86,605.52Z"/><path class="cls-38" d="M556,603.85c-4-2.4-10.88,0-15.16.67-5.58.91-11.75,1.88-17,4a1.5,1.5,0,0,0,.24,2.86c4.82,1.55,11.13-1.21,16-1.92,2.76-.4,5.51-.84,8.27-1.2s5.62-.13,7.88-1.8A1.55,1.55,0,0,0,556,603.85Z"/><path class="cls-38" d="M373.52,619c-2.26-.94-4.6-.53-7-.56a78.34,78.34,0,0,1-10.36-1c-6.27-.94-12.48-2.15-18.67-3.53s-12.34-2.86-18.52-4.26c-3.3-.75-6.62-1.47-9.94-2.13a95,95,0,0,0-10.2-1,.53.53,0,0,0-.19,1c2.9.84,5.64,2.05,8.57,2.83,3.29.88,6.58,1.72,9.86,2.61,6.54,1.76,13.06,3.58,19.65,5.16s13.2,2.8,19.9,3.79a78.79,78.79,0,0,0,9.08.86c2.78.09,5.59.46,8.05-1A1.63,1.63,0,0,0,373.52,619Z"/><path class="cls-39" d="M255,643.62c-4.7-1.73-9.71-15.66-2.46-18.78s23-5.64,32.49-4.21S294.26,637,292.5,639,262.3,646.31,255,643.62Z"/><path class="cls-39" d="M309.28,640.08c-4.64-2.53-11.8-9.08-9.1-14.05s14.55,1.18,14.85,7S313.29,642.27,309.28,640.08Z"/><path class="cls-39" d="M408.72,649.71c-2.85,1.31-7.72-20.26-5.48-23.11s23.79-7.73,33.45-9.16,10.09,16.33,6.34,20.24S428.28,640.76,408.72,649.71Z"/><path class="cls-39" d="M283.71,605a47.08,47.08,0,0,0-16.36-.39,42.11,42.11,0,0,0-7.68,1.84c-2.67.89-4.45,2.3-6.68,3.92a.66.66,0,0,0,.74,1.09c9.29-4.94,20-4,30-6.07A.2.2,0,0,0,283.71,605Z"/><path class="cls-39" d="M307.82,607.09c-3.84-2.49-9.18-1.94-13.41-1a.51.51,0,0,0,.09,1c4.39-.17,8.95,2.16,13.27,1C308.28,608,308.17,607.32,307.82,607.09Z"/><path class="cls-39" d="M413.46,610c-3.52-.82-8,1.41-11.33,2.52a96.41,96.41,0,0,0-12.78,5.31c-.2.1-.17.49.1.43a117.65,117.65,0,0,0,12.14-3.53q3-1,6.05-1.78c2.13-.56,4.22-.57,6.07-1.79A.65.65,0,0,0,413.46,610Z"/><path class="cls-39" d="M444.6,602c-3.43-1.75-8.09-.42-11.65.45-4.83,1.17-9.6,2.43-14.45,3.5-.67.15-.54,1.25.11,1.32,4.07.42,8.12-.84,12-1.86,2.34-.6,4.68-1.13,7.06-1.51s4.63-.06,6.85-.76A.63.63,0,0,0,444.6,602Z"/><path class="cls-39" d="M541.79,605.21c-2.31-.62-4.6.27-6.83.88-3,.82-6.31,1.29-9.17,2.45a1.13,1.13,0,0,0,.18,2.17c2.63.53,5.41-.43,7.95-1.12s6-1.34,8.14-3.12A.7.7,0,0,0,541.79,605.21Z"/><path class="cls-22" d="M477.62,601s21,6.41,22.87,16.94,0,14.19,0,20.45,9.15,12.52,7.71,2.41-3.41-23.31-1.92-26.82,9.62-1.47,12.51-5.87-1.93-5.67-7.22-3.1-10.11-.64-13,0C498.57,605,480.75,593.43,477.62,601Z"/><path class="cls-20" d="M513.15,606.43c-2.92.09-5.41,1.83-8.45,1.85a18.78,18.78,0,0,1-8.48-2.52,31.56,31.56,0,0,0-6.13-3.52c-3.19-1.8-6.74-3.36-9.56-2.39a.52.52,0,0,0,0,.95,21.91,21.91,0,0,0,4.19,1.39,29.73,29.73,0,0,1,4.81,2.35c1.76,1,3.41,2.13,5.11,3.17a22.1,22.1,0,0,1,7.48,14.08,45.52,45.52,0,0,1-.54,10.87c-.38,2.86-.59,5.94.92,8.49.56,1,1.8.25,1.81-.65.08-4.16.11-8.25.34-12.42a43.18,43.18,0,0,0-.68-11.57,11.81,11.81,0,0,0-.35-1.33,4.85,4.85,0,0,1,.14-.76c.42-1.59,1.7-2.45,3.11-3.15,3.08-.12,5.9-1.17,7-3.92A.65.65,0,0,0,513.15,606.43Z"/><path class="cls-20" d="M492.1,602.26a15.91,15.91,0,0,0,1.88,1.17,5.35,5.35,0,0,1,2,1.15c.63.67,1,1,1.91,1a.7.7,0,0,0,.63-.76c.09-1.76-2.17-2.79-3.62-3.15-1.62-.4-3.07-2.51-4.85-1.53a.65.65,0,0,0-.05,1A22.22,22.22,0,0,0,492.1,602.26Z"/><path class="cls-12" d="M338.22,610.2s13,2.22,15.89,5.9,1.05,16,7.51,15.39.68-10.88,3.08-15.39,7.71-2,8.67-5.9S344.78,602.3,338.22,610.2Z"/><path class="cls-10" d="M369.05,611.42a4.25,4.25,0,0,1-1.6-1.25c-.71-.74-1.92-.67-2.85-.71-1.46-.07-2.73.4-4.21.08-1.22-.26-2.31-.77-3.5-1.09a16.79,16.79,0,0,0-2.41-1.6c-2-1-4.21,0-6,.93a4,4,0,0,0-3.59.58.5.5,0,0,0,0,.77c1.51,1.37,3.79,1.38,5.66,2.2l.87.39a12.09,12.09,0,0,1,3.52,3.32c1.93,2.78,1.2,6.36,1.95,9.49.64,2.67,3.25,7.63,6.33,4.78a1.68,1.68,0,0,0,.41-2.5c.09-1.79-.92-3.95-1.53-5.3-.82-1.82-1.77-3.64-2.75-5.42a15.72,15.72,0,0,0-.54-1.86,17.66,17.66,0,0,0,8.35-.47,2.25,2.25,0,0,0,2.12-.35A1.16,1.16,0,0,0,369.05,611.42Z"/><path class="cls-10" d="M374.78,611.75a.9.9,0,0,0,0-1.12c-.31-.55-1.14-.76-1.65-1a2.65,2.65,0,0,0-2.08-.39.44.44,0,0,0-.28.45,2.88,2.88,0,0,0,1.28,1.88,3.46,3.46,0,0,0,1.28.69,1.39,1.39,0,0,0,.81,0l.33-.16Z"/><path class="cls-12" d="M236.54,611.34c-3.06,3.24-1.23,6.7,2.07,11.4,0,0-2.06,15.45,2.47,18.67s4.38-16.59,3.45-21.34-6.53-8,.53-13.1C245.06,607,240.93,606.68,236.54,611.34Z"/><path class="cls-10" d="M239.46,611.75a19.32,19.32,0,0,1,3.25-4.83,1.91,1.91,0,0,0,.53-2.15.35.35,0,0,0-.35-.23c-1.31.05-1.7,1-2.33,2q-.23.36-.42.75a.6.6,0,0,0-1.13-.16,15.54,15.54,0,0,0-2.76,7.8,8.08,8.08,0,0,0,2.62,5.69c.78,2.68.52,5.18.34,7.92-.21,3.26-.74,7.64,1.6,10.19a.92.92,0,0,0,1.49-.53c.3-3.81-.45-8-.58-11.87a21.4,21.4,0,0,0-.76-5.24,1,1,0,0,0,0-.3c0-1.85-1.18-3.43-1.67-5.18a7.71,7.71,0,0,1-.21-1.26A8.89,8.89,0,0,1,239.46,611.75Z"/><path class="cls-40" d="M238.61,552.68c-3.43,0-2.26-9,1-18.07s4.69-23.84,15.89-31.78S292,485.13,294.13,483c0,0-10.47-8.67-4.69-19.14s23-13.36,33.7-14.08c0,0-8.18-16.62,0-22S344,418,361.3,417.59s37.92-5.41,45.14-16.61,2.12-18.78,2.12-18.78,20.05,6.5,28.83,21.67c0,0,9.9,10.11,8.62,16.61s13.69,4.7,13.06,8.67c0,0,16.36-1.44,19.61,4.7a10.71,10.71,0,0,1,0,10.83s10.29,1.45,16.7,12.64-2.5,17.7-2.5,17.7,3.53-6.34,12.92-3.09,5,12.5,9.29,14.67,15,9.14,19.53,19.5c7.7,17.75,9.88,46.28,2.58,45.53s-13.56-18.16-15-23.07S494.77,522,487.42,514,480,507.16,472,507.16s-20.95,7.22-34.56,8.31-21.55,12.63-25.89,18.41S397,555.32,385.27,545s-25.46-12.16-33.92-19-15.59-6.5-20-6.86c0,0-13.78,4.33-23.16,1.8s-14.09-3.25-18.78-.72-17.94,9.75-24.32,9-16.17,1.33-18.37,6.1S243.05,552.7,238.61,552.68Z"/><path class="cls-41" d="M336.32,451.82s.92.31,2.68.76a69,69,0,0,0,7.71,1.53,79.76,79.76,0,0,0,12.16.8,65.44,65.44,0,0,0,15.61-2c1.4-.35,2.79-.83,4.23-1.25.72-.19,1.41-.52,2.13-.78L383,450c1.45-.56,2.92-1.24,4.41-1.87s3-1.24,4.58-1.88c6.21-2.5,12.83-4.94,19.74-7.27s14.12-4.55,21.53-6.51c1.84-.5,3.72-.93,5.59-1.39s3.77-.86,5.68-1.22l2.86-.53,2.89-.42c1-.14,1.94-.19,2.91-.28a11.87,11.87,0,0,1,1.46-.05h1.47l-.82,0-1,0-.63,0-.72.09c-1,.13-2.26.27-3.69.57-.72.14-1.5.26-2.31.45l-2.59.58c-7.27,1.71-17.35,4.71-28.87,8.66-5.75,2-11.87,4.2-18.17,6.63-3.15,1.22-6.34,2.5-9.54,3.83-1.61.67-3.18,1.39-4.86,2l-2.5,1-.63.24-.64.19-1.29.37a63.42,63.42,0,0,1-21.23,2.5c-1.78,0-3.54-.25-5.29-.42s-3.47-.48-5.17-.83A60.52,60.52,0,0,1,336.32,451.82Z"/><path class="cls-41" d="M380.62,458.26s2.93,0,8.05-.14,12.43-.5,21.18-1.23,18.92-1.85,29.76-3.5,22.33-3.85,33.72-6.63l-8.62,2.5c-2.73.7-6,1.54-9.76,2.43s-7.95,1.75-12.49,2.52C424.35,457.52,400.8,459.65,380.62,458.26Z"/><path class="cls-41" d="M297.28,481.07a33.7,33.7,0,0,1,4.36-.22,74.8,74.8,0,0,1,12.27,1.1A99.7,99.7,0,0,1,332.38,487a127.88,127.88,0,0,0,23.71,6.71,163.55,163.55,0,0,0,29.06,2.39l3.92,0c1.31,0,2.64,0,4-.09l8.07-.42,1-.05,1-.1,2.05-.18,4.13-.38,4.18-.38,4.19-.54c22.49-2.79,46.21-7.82,69.64-13.95l-4.72,1.32c-3.07.85-7.53,2.11-13.16,3.62a469.92,469.92,0,0,1-46.09,9.56c-4.71.62-9.58,1.4-14.62,1.81l-3.8.36c-1.27.12-2.55.28-3.85.33l-7.83.42a177.46,177.46,0,0,1-32.54-1.59l-2.06-.29-2.05-.4-4.09-.79c-1.36-.32-2.71-.67-4.06-1l-2-.51-2-.6c-2.68-.75-5.3-1.68-7.92-2.61l-7.72-3a101.25,101.25,0,0,0-15.69-4.32c-2.65-.49-5.29-.89-7.94-1.11A50.78,50.78,0,0,0,297.28,481.07Z"/><path class="cls-41" d="M272,514.3l.36.09a4.73,4.73,0,0,0,1.07.19,7.1,7.1,0,0,0,3.93-1c1.6-.8,3.3-2.18,5.53-3.49a12.53,12.53,0,0,1,3.87-1.53,15.29,15.29,0,0,1,4.61-.24c3.21.27,6.44,1.45,9.87,1.64,3.4.35,6.86-1.2,10.4-2.71,1.78-.78,3.58-1.6,5.46-2.35A34.3,34.3,0,0,1,323,503.1a12.69,12.69,0,0,1,6.3.12,8.63,8.63,0,0,1,2.79,1.53,10.85,10.85,0,0,1,2.09,2.35l-.29-.33a8,8,0,0,0-.86-.91,8.58,8.58,0,0,0-4-2.2,13.42,13.42,0,0,0-6.87.57,62.55,62.55,0,0,0-8.23,3.46c-1.47.7-3,1.42-4.61,2.09a22.59,22.59,0,0,1-5.23,1.58,18.47,18.47,0,0,1-5.7-.26c-1.87-.35-3.69-.86-5.5-1.2a17,17,0,0,0-5.45-.26,13.64,13.64,0,0,0-5.11,1.88,47.07,47.07,0,0,1-4.95,2.67,8.63,8.63,0,0,1-2.72.64A6.28,6.28,0,0,1,272,514.3Z"/><path class="cls-41" d="M343.53,510.68l.35.07c.23.05.56.14,1,.26a25.5,25.5,0,0,1,3.62,1.45,105.71,105.71,0,0,1,11.86,7.14c4.76,3.16,10.18,7,16.24,10.72a55.09,55.09,0,0,0,9.73,4.82,17.17,17.17,0,0,0,5.4,1.07,8,8,0,0,0,5.19-1.68l-.29.26a6.32,6.32,0,0,1-.91.69,8.08,8.08,0,0,1-1.66.79,10,10,0,0,1-2.45.43,18.3,18.3,0,0,1-6.51-1,47.27,47.27,0,0,1-7.63-3.36,160.36,160.36,0,0,1-16.58-10.74c-2.83-2-5.66-4.07-8.51-6-1.43-1-2.86-1.9-4.32-2.75A23.22,23.22,0,0,0,343.53,510.68Z"/><path class="cls-41" d="M404.84,521.57s.05-.26.16-.76a16.36,16.36,0,0,1,.63-2.1,14.88,14.88,0,0,1,4.51-6.46,15.8,15.8,0,0,1,4.68-2.62,20.51,20.51,0,0,1,5.84-1.11,30.67,30.67,0,0,1,12.44,2.16l-.85-.16c-.55-.11-1.36-.24-2.37-.4a41.27,41.27,0,0,0-8.18-.37,20.86,20.86,0,0,0-10.09,3,15.6,15.6,0,0,0-4.06,3.84A23.11,23.11,0,0,0,404.84,521.57Z"/><path class="cls-41" d="M446.77,505.63l1.69-.93,2-1.1c.81-.43,1.74-.91,2.79-1.43a65.29,65.29,0,0,1,7.79-3.39,35.75,35.75,0,0,1,10.87-2.18,28.25,28.25,0,0,1,12.84,2.88,14.82,14.82,0,0,1,1.58.82l1.56.88c.52.31,1,.66,1.52,1s1,.67,1.49,1.05c2,1.44,3.86,3,5.87,4.51.5.35,1,.74,1.51,1.08l1.58,1c.53.32,1.1.58,1.65.87l.84.42.89.33c.59.22,1.16.47,1.78.66s1.23.38,1.85.55c1.25.36,2.52.67,3.8,1a41.58,41.58,0,0,1,7.62,2.48,22,22,0,0,1,6.54,4.7l-.42-.36c-.29-.23-.68-.61-1.26-1a21.09,21.09,0,0,0-5.22-2.94,32.27,32.27,0,0,0-4-1.26c-1.49-.36-3.1-.69-4.82-1.06a50.93,50.93,0,0,1-5.42-1.39,21.52,21.52,0,0,1-2.83-1.11l-1.41-.68-1.37-.82c-.94-.52-1.79-1.2-2.7-1.81l-2.64-2a66.7,66.7,0,0,0-5.52-3.91A30,30,0,0,0,474.08,498a30.76,30.76,0,0,0-7.16.35,48.42,48.42,0,0,0-7,1.81C455.34,501.7,451,503.72,446.77,505.63Z"/><path class="cls-14" d="M294.61,476.45c-4.34-2.06-5.11-7.89-2.3-12.64s20.54-15,31.89-11.23,48.59,11.94,72.4,11.23,66.71-13.16,76.75-11.32,20.95,15.57,8.36,24S406.77,494.4,381.6,493.06s-52.37-11.52-63-13.33S301.16,479.55,294.61,476.45Z"/><path class="cls-14" d="M364.28,451.77c-13.56-.74-28.55-2.53-35.88-4.94s-8.81-12.38-4.2-16.25,20-10.94,40.08-9.93S400.54,415.26,408,408s3.46-21.72,3.46-21.72S438,400.69,439.5,412.52s-6.6,17.23-17.9,19.92S376.74,452.45,364.28,451.77Z"/><path class="cls-14" d="M255,513.88c-2.52-1.69-.8-6,9.65-12.53s25.05-15.33,36.5-15.51,27.44,2.35,35.1,6.14,31.65,11,49.63,9.57,43.95-5.47,62-8.49,38.14-7.29,41.71-10.71,9-7.81,15.7-5.9,2,12.42,4.71,15.53,14.88,13.59,8.79,16.77-18.57-.18-23.95-5.24S479,491.62,468.91,493.19s-24,11.88-32.22,12.78-20.81-.91-25.28,1.17-10,18.21-13.44,21.43-10.05,7.15-19.06-1-25.46-20.1-30.54-21.56-9.06,5.92-12.8,4.42,4.07-5,0-7.95-15.18-3-20.57.72-9.77,6.42-13.81,4.22-15.46-4.25-22.32,1.37S261.22,518.06,255,513.88Z"/><path class="cls-14" d="M238.54,550c-2.38-.36-.34-9,2-12.56s5.73-20.64,7.75-22.06,6,4.39,9.75,5,6.76-3.92,11.3-3.5,9.23,1.55,13-3,9.72-3,15-1.28,17.93-3.84,22.87-5.46,11.59,3.41,12.62,5.12c2.79,4.63-14.21,9.39-18.7,8.13s-10.12-3.68-13.57-3.5c-5.9.32-9.34-.41-14.06,1.57s-13.12,9.82-20.7,8.62a30.48,30.48,0,0,0-19.13,3.71C242.28,533.27,242.92,550.66,238.54,550Z"/><path class="cls-14" d="M504.63,517.13c-9.82-7.1-19.5-16.73-32.4-17.11a30.74,30.74,0,0,0-15.11,3.52c-1.44.72-3,1.64-4.69,2.52-1.58.36-3.13.77-4.67,1.26h0c-.45.08-2.84.77-3,.08-.42-2,1.28-4,2.67-5.13a43.24,43.24,0,0,1,4.64-3.34c.57-.34.08-1.27-.53-1-1.08.42-2.07.81-3,1.25a1.77,1.77,0,0,0-1.7-.54c-1.72.45-3.47,1.11-4.41,2.59a9.59,9.59,0,0,0-3.48,3.91c-.7-.92-1.32-1.91-2-2.87a1.63,1.63,0,0,0-2.91.6,1.19,1.19,0,0,0-1.48.55,1.12,1.12,0,0,0-.28,1.14,2.7,2.7,0,0,0,.65,1.14c-.78-.29-1.57-.56-2.37-.8a23,23,0,0,0-11.39-.48c-.83.18-.67,1.52.13,1.62,4.29.52,8.33.61,12.41,2.26A40,40,0,0,1,436,511l-.88.12c-1.82.24-3.71.29-5.56.48-8-.31-14.7,1.83-19.94,8.21-5.07,6.2-8.21,18-17.35,19.09-6,.74-11.58-2.95-16.36-6.16-3.81-2.56-7.58-5.14-11.32-7.79-6.46-4.6-13.86-10.1-22-10.6a11.33,11.33,0,0,0-5.08-.06,1.09,1.09,0,0,0-.1,2c3.61,1.41,7.21,2.11,10.67,4q.75.4,1.47.87A121.12,121.12,0,0,0,362.1,530c4.29,2.49,9,4.23,13.45,6.46l1.24.81a46.67,46.67,0,0,0,4.45,2.58,25.72,25.72,0,0,1,2.81,2.33c4.19,4,9.18,4.09,14.11,1.55a17.94,17.94,0,0,0,2.74-1.79,14.47,14.47,0,0,0,4.69-3.85c2.7-3.64,3.66-7.89,7.24-10.92,5.14-4.35,11.7-6.56,16.65-11.11a32,32,0,0,1,5-1.51,38.74,38.74,0,0,0,4-.75,15.42,15.42,0,0,0,5.29-1.47,1.52,1.52,0,0,0,.83-.15c.76-.37,1.53-.69,2.31-1a22.43,22.43,0,0,0,4.52-1.46c3.26-.88,6.59-1.49,9.89-2.29,5.8-1.41,11.92-3.17,17.9-1.92,4.89,1,8.85,5.22,12.53,8.3a26,26,0,0,0,11.61,6.08C504.8,520.18,505.94,518.07,504.63,517.13ZM391.08,542.3a14.86,14.86,0,0,0,2.66-.35l-.47.15A5.41,5.41,0,0,1,391.08,542.3Z"/><path class="cls-14" d="M471.27,432.44c-2.35-3.79-17.06-1.12-31.77,2.13-13.36,3-51.35,12.79-57.18,17.78-2.37.82-4.73,1.68-7.12,2.48-6,2-11.9,2.56-18.15,3a.52.52,0,0,0-.18,1c5.05,2.38,10.86,1.06,16-.45,1.89-.56,3.75-1.2,5.61-1.86,3-.17,6.08-.48,9.06-.9,9.6.57,29.4-2,49.17-5.3C463.53,445.91,478.69,444.38,471.27,432.44Z"/><polygon class="cls-42" points="290.27 506.42 286.46 499.33 291.15 497.16 294.61 503.69 290.27 506.42"/><polygon class="cls-42" points="312.82 498.15 311.01 493.06 317.15 493.06 315 498.42 312.82 498.15"/><polygon class="cls-42" points="315 463.81 318.58 472.11 324.19 470.31 318.58 461.64 315 463.81"/><polygon class="cls-42" points="340.57 438.53 345.68 444.31 348.37 441.42 344.47 434.19 340.57 438.53"/><polygon class="cls-42" points="378.91 466.88 384.32 463.81 389.11 469.58 384.01 473.56 378.91 466.88"/><polygon class="cls-42" points="436.69 466.88 438.5 461.66 443.03 464.27 439.86 468.68 436.69 466.88"/><polygon class="cls-42" points="423.69 444.31 419.25 443.26 421.47 439.25 425.5 441.78 423.69 444.31"/><polygon class="cls-42" points="392.83 510.39 387.97 506.42 390.4 501.55 395.8 507.87 392.83 510.39"/><polygon class="cls-42" points="439.86 510.39 433.8 506.42 436.83 503.89 445.2 507.14 439.86 510.39"/><polygon class="cls-42" points="477.62 461.64 477.62 453.69 480.56 453.69 483.28 461.64 477.62 461.64"/><polygon class="cls-42" points="502.82 505.97 506.75 498.42 511.57 501.55 505.07 508.75 502.82 505.97"/><polygon class="cls-42" points="494.84 476.45 498.57 480.06 491.82 485.84 489.59 481.14 494.84 476.45"/><polygon class="cls-42" points="266.23 523.88 262.14 519.06 266.23 516.89 269.36 523.88 266.23 523.88"/><polygon class="cls-42" points="408.52 412.52 404.91 408.02 411.41 399.04 415.75 405.78 408.52 412.52"/><path class="cls-43" d="M399.94,376.79s7.58,8.66,6.5,15.16-3.62,11.56-22,17.34-42.51,5-53,10.11-19.67,16.61-8.24,30.34c0,0-.23,2.71-7,2.35s-17.7,4.87-21.85,8.84-6.5,17.16,0,19,3.79-13.18,6.68-17.33,10.66-6,18.6-6,11.74-2,12.1-6-2.53-11.74,5.6-16.61,19.86-6.14,24.38-2.71,2.88,8.13.9,9.93-8.31,4.88-9.93,8.13-2,5.23-6.87,7.94-11.91,14.63-8.48,20.77,9.93,9,15.53,16.25,4.69,17.51-.73,21.85,4.5,11.93,10.48,4.69,9.21-19.32,2.71-26.54-16.23-13.18-16.87-20.23,6.93-15.52,10.55-19,2.16-6.32,10.47-11.37,31.42-15.71,43.16-17.88,22.93,2.53,26.18,6.86,8.67,6.87,8.49,11-2.71,9.39,1.08,10.83,16.43,6.5,17.33,11.92-1.8,17.7,2,19.68,11.2,2.35,10.65,8.49.18,10.83,3.25,11,6.14-10.47,2.35-15.34S476,485,473.8,481.16s1.54-11.2-1.85-17.34S455,453.35,452.13,448.29s2-5.78-.9-10.65-4.74-8.37-3.07-10.47,4.15-9.94-1.45-18.42S419.62,381.12,399.94,376.79Z"/><path class="cls-43" d="M411.41,444.3c0-4.75,5,7.95,5.93,12.28s12.36,3.62,14.05,12.1-2.28,11.38-5.17,11.38-1.65-9.34-4.62-12.62-7.66-4.72-8-9.41S411.41,448.28,411.41,444.3Z"/><path class="cls-43" d="M460.38,427.67a10.06,10.06,0,0,0-4.78-4.57c-3-1.62-3.86-3.36-4.75-6.62-1.22-4.47-3.74-9.63-8.23-11.62-.24-.11-.6.13-.46.41,1.19,2.45,2.91,4.58,4.14,7,1.34,2.7,1.59,5.7,2.31,8.59,1,4.21,6.73,6.56,10.21,8.19C459.67,429.48,460.81,428.62,460.38,427.67Z"/><path class="cls-43" d="M445.66,425c-.2,0-.17.32,0,.32S445.86,425,445.66,425Z"/><path class="cls-43" d="M458.38,425.81a18.69,18.69,0,0,0-8.11-2.32c-2.1,0-4.7,1.64-4.38,3.94a.47.47,0,0,0,.72.34c1.89-1,2.9-1.61,5.13-1.21a22,22,0,0,1,5.31,2A1.53,1.53,0,0,0,458.38,425.81Z"/><path class="cls-43" d="M453,422.88a6.31,6.31,0,0,0-2.57-.7,16.44,16.44,0,0,0-2.52-.13c-1.17-.05-1.06,1.64-.09,1.91-.17-.07-.12,0,.15.13l.64.37a12.6,12.6,0,0,0,1.13.64,3.09,3.09,0,0,0,3.13.19A1.53,1.53,0,0,0,453,422.88Z"/><path class="cls-43" d="M461.35,427.53a5.63,5.63,0,0,0-2.32-1,10,10,0,0,1-1.17-.5,9.26,9.26,0,0,1-1.61-.71.47.47,0,0,0-.68.62,12.24,12.24,0,0,0,.84,1.32,4.37,4.37,0,0,0,1.15.84,5.85,5.85,0,0,0,3.22,1.16A1,1,0,0,0,461.35,427.53Z"/><path class="cls-43" d="M459.67,427.11c-.65-.22-1.33-.32-2-.58s-1.32-.24-1.91-.52a.41.41,0,0,0-.52.6,5.66,5.66,0,0,0,1.52,1.81,3.92,3.92,0,0,0,2.52.68C460.24,429,460.73,427.48,459.67,427.11Z"/><path class="cls-43" d="M462,427.48c-.43-.73-1.55-1-2.23-1.46a14.29,14.29,0,0,0-2.47-1.4c-.38-.19-.87.31-.57.67a6.23,6.23,0,0,1,.74,1.17,5.2,5.2,0,0,0,1.15,1.28c.71.65,1.94,1.64,2.93,1.15A1,1,0,0,0,462,427.48Z"/><path class="cls-43" d="M460.26,427.64c-.44-.14-.83.05-1.27,0a4.85,4.85,0,0,1-1.31-.21c-.44-.15-.93.28-.62.72.78,1.13,2.81,1.91,3.7.45A.7.7,0,0,0,460.26,427.64Z"/><path class="cls-44" d="M325,447.6c-2.24.53-7.36-15.43,0-21.07s24.43-8.57,22.19-4.31-16.84,9-18.64,13.48S330.69,446.25,325,447.6Z"/><path class="cls-44" d="M294.61,476.45c-2.86.15-2.76-10.37,0-13.81,3.83-4.77,12.08-8.75,17.47-9.26s12.57.5,9.48,1.29-12.63,1.12-17.79,4.49-5.61,8.64-5.84,12.46S296.8,476.33,294.61,476.45Z"/><path class="cls-44" d="M362,443.26c-3.45.21-7.86,3.89-8.76,8s4,3.48,5.61,0S366.86,443,362,443.26Z"/><path class="cls-44" d="M343.53,461.64c-3,3.31-6.42,10.09-4.06,15.6s7.07,9.87,10.55,11.11,1-6.51-1.65-9.66-4.34-8.94-.95-13.84S347.26,457.5,343.53,461.64Z"/><path class="cls-44" d="M356.58,521.11c-4.16,0-3.64-2.28-.61-6.91s3.26-13.05,1-17,2.59-4,5.62.38S365.86,521,356.58,521.11Z"/><path class="cls-44" d="M378.91,427.16c-8.47.75-20.82-.22-22.33-5.05s12.53-8.84,18.7-9.59,20.44-2.76,26.39-8.15,8.19-11,7.29-15.15c0,0,13,8.08,13.41,15.38s-13.18,12.77-21.15,15.59S389.16,426.27,378.91,427.16Z"/><path class="cls-44" d="M423.78,419c-4,.11-3.93-5.46.56-9.73S433.21,418.78,423.78,419Z"/><path class="cls-44" d="M448.37,439.25c-1.48,2.53-10.44-7.68-9.32-10.67S450.29,436,448.37,439.25Z"/><path class="cls-44" d="M467.34,476.45c-.5-2.66.34-9.43-1.34-12s-7.41-5.8-8.54-6.77,1-1.72,5,0,7.57,5,8.24,8.87S468.83,484.2,467.34,476.45Z"/><path class="cls-44" d="M481.38,504.19c-2,.66-3.15-9.33-2.14-11.69S484.67,503.08,481.38,504.19Z"/><path class="cls-44" d="M427.11,467.61c-1.59-2.86-5.13-6.32-8.59-6.37-.49,0-.54.61-.29.89,2,2.24,4.34,3.86,5.95,6.54a9.66,9.66,0,0,1,1.27,4.31c.1,1.35-.29,2.19.44,3.38a1.11,1.11,0,0,0,1.31.42C430.54,475.06,428.47,470.07,427.11,467.61Z"/><path class="cls-45" d="M328.64,426c-4.66,1.49-6.43,4.27-6.33,8.24s1.17,5.32,3.16,3.81.81-5.74,3.17-7.42S334.13,424.2,328.64,426Z"/><path class="cls-45" d="M344.45,465.46a1,1,0,0,0-1.76-.84c-1.53,1.49-2.14,3.86-2.34,5.93-.17,1.76-.22,4.06,1.52,5a.92.92,0,0,0,1.11-.23c.86-1.22.51-2.54.46-4C343.37,469.3,344.2,467.44,344.45,465.46Z"/><path class="cls-45" d="M357.23,446.83a2.13,2.13,0,0,0-1.57,1.11,2.33,2.33,0,0,0-.3,1.57.73.73,0,0,0,1.38.25,2.6,2.6,0,0,1,.24-.28l.18-.28c-.09.15.09-.1.09-.1s.23-.24.34-.36l0,0,.08-.06a4.34,4.34,0,0,1,.31-.36A.91.91,0,0,0,357.23,446.83Z"/><path class="cls-45" d="M358,448.32s0,0,0,0Z"/><path class="cls-45" d="M298.43,460.33c-2.12-.38-3.6,1.83-4.54,3.41s-1.53,4.17-.11,5.66a.77.77,0,0,0,1.19-.25c.49-1.47.45-2.89,1.22-4.31s2.28-2.23,2.7-3.84A.58.58,0,0,0,298.43,460.33Z"/><path class="cls-45" d="M358.16,511.8a5.74,5.74,0,0,0-2.83,5.65,1.21,1.21,0,0,0,2,.38,15.6,15.6,0,0,0,1.2-2.06,7.52,7.52,0,0,0,1.3-2.53C360,512.36,359.1,511.35,358.16,511.8Z"/><path class="cls-45" d="M424.1,411.48a3.37,3.37,0,0,0-1.62,3.2,1.56,1.56,0,0,0,.25.76s.61.59.4.38a.93.93,0,0,0,1.37-.14,2.23,2.23,0,0,0,.53-1.59,4.7,4.7,0,0,1,.42-1.46A.93.93,0,0,0,424.1,411.48Z"/><path class="cls-45" d="M443.94,433.84a.84.84,0,0,0-1.58.57c.23.68.52,1.42,1.27,1.63a.69.69,0,0,0,.8-.55C444.53,434.88,444.13,434.39,443.94,433.84Z"/><path class="cls-45" d="M466.23,461.13a8.07,8.07,0,0,0-3.78-2.33.6.6,0,0,0-.49,1,15.4,15.4,0,0,1,2.79,2.62c.74.86,1.32,2,2.41,2.48a.56.56,0,0,0,.78-.39C468.1,463.17,467.08,462.07,466.23,461.13Z"/><path class="cls-45" d="M481.17,498.43c-.39-.49-1.37-.6-1.61.12a2.73,2.73,0,0,0,0,1.55,2.86,2.86,0,0,0,.45,1.24.64.64,0,0,0,1,.05,2.26,2.26,0,0,0,.45-1.2A2.45,2.45,0,0,0,481.17,498.43Z"/><path class="cls-45" d="M423.41,464.87a.92.92,0,0,0-.61.95,6.35,6.35,0,0,0,.77,2,18.5,18.5,0,0,0,1.11,2.76,1.51,1.51,0,0,0,2.72-.58C427.82,468.19,425.72,464.09,423.41,464.87Z"/><path class="cls-46" d="M356.58,421.55c-1.58,1.42-2.44,3.6,2.45,4.27s12.5-1.3,14.94-2.67c0,0,15.72-1.15,17.91-7.89s-1.15-6.66-7.47-6S360.34,418.18,356.58,421.55Z"/><path class="cls-47" d="M361.3,395.53s4.75-18.67-24.2-31.24l5.08-9.14s23.88,12.76,20.82,40.37h-1.7Z"/><path class="cls-48" d="M361.25,388.85s-12-1.32-17.67,2.87-5,16.33,3.8,25.3,19.13,7.31,24.05,0c0,0,4.93,6.06,12.17-1.64s12.59-19.45,1.52-29S364.3,381.61,361.25,388.85Z"/><path class="cls-49" d="M361,389.73s-10.42-1.15-15.4,2.5-4.32,14.24,3.32,22,15.09,5,19.38-1.33c0,0,3.47,3.74,9.78-3s9.65-13.28,0-21.58S363.65,383.43,361,389.73Z"/><ellipse class="cls-14" cx="349.25" cy="399.72" rx="6.16" ry="7.1"/></g></svg>